<svg width="34" height="34" viewBox="0 0 34 34" fill="none" xmlns="http://www.w3.org/2000/svg">
<circle cx="17" cy="17" r="17" transform="rotate(-180 17 17)" fill="white"/>
<path d="M20.4667 12.7604C17.7848 15.3863 17.7875 19.7077 20.4667 22.3363C20.7149 22.5796 20.8387 22.8771 20.8387 23.2289C20.8387 23.5806 20.7149 23.878 20.4667 24.1213L19.7129 24.861C19.4651 25.1042 19.1618 25.2258 18.8034 25.2258C18.445 25.2258 18.1418 25.1042 17.8936 24.861L11.3398 18.441C11.0918 18.1977 10.9678 17.9002 10.9678 17.5484C10.9678 17.1966 11.0917 16.8993 11.3398 16.6559L17.8936 10.2359C18.1418 9.99261 18.4449 9.87099 18.8034 9.87099C19.1618 9.87099 19.4651 9.99261 19.7129 10.2359L20.4667 10.9755C20.7149 11.2186 20.8387 11.5145 20.8387 11.8631C20.8387 12.2115 20.7148 12.5106 20.4667 12.7604Z" fill="black"/>
<path d="M20.4667 12.7604C17.7848 15.3863 17.7875 19.7077 20.4667 22.3363C20.7149 22.5796 20.8387 22.8771 20.8387 23.2289C20.8387 23.5806 20.7149 23.878 20.4667 24.1213L19.7129 24.861C19.4651 25.1042 19.1618 25.2258 18.8034 25.2258C18.445 25.2258 18.1418 25.1042 17.8936 24.861L11.3398 18.441C11.0918 18.1977 10.9678 17.9002 10.9678 17.5484C10.9678 17.1966 11.0917 16.8993 11.3398 16.6559L17.8936 10.2359C18.1418 9.99261 18.4449 9.87099 18.8034 9.87099C19.1618 9.87099 19.4651 9.99261 19.7129 10.2359L20.4667 10.9755C20.7149 11.2186 20.8387 11.5145 20.8387 11.8631C20.8387 12.2115 20.7148 12.5106 20.4667 12.7604Z" stroke="white"/>
</svg>
