<svg width="37" height="29" viewBox="0 0 37 29" fill="none" xmlns="http://www.w3.org/2000/svg">
<path d="M29.679 8.8816L24.7058 0.592882C24.5344 0.313673 24.2597 0.113395 23.9415 0.0355821C23.6232 -0.0422314 23.2871 0.00870887 23.0062 0.17733C22.7254 0.345952 22.5224 0.618625 22.4414 0.936081C22.3605 1.25354 22.4081 1.59012 22.5739 1.87266L27.5471 10.1614C27.7185 10.4406 27.9932 10.6409 28.3114 10.7187C28.6297 10.7965 28.9658 10.7456 29.2467 10.5769C29.5275 10.4083 29.7305 10.1356 29.8115 9.81818C29.8924 9.50073 29.8448 9.16415 29.679 8.8816ZM9.78607 10.1614L14.7593 1.87266C14.9251 1.59012 14.9727 1.25354 14.8918 0.936081C14.8108 0.618625 14.6079 0.345952 14.327 0.17733C14.0461 0.00870887 13.71 -0.0422314 13.3917 0.0355821C13.0735 0.113395 12.7988 0.313673 12.6274 0.592882L7.65421 8.8816C7.48837 9.16415 7.44076 9.50073 7.52172 9.81818C7.60267 10.1356 7.80566 10.4083 8.08655 10.5769C8.36744 10.7456 8.70353 10.7965 9.02177 10.7187C9.34001 10.6409 9.61468 10.4406 9.78607 10.1614Z" fill="white" fill-opacity="0.5"/>
<path d="M34.813 9.72209C34.8421 9.54424 34.8322 9.36218 34.7839 9.18855C34.7357 9.01491 34.6502 8.85384 34.5335 8.7165C34.4169 8.57916 34.2717 8.46882 34.1081 8.39314C33.9446 8.31746 33.7665 8.27824 33.5863 8.2782H3.74692C3.56671 8.27824 3.38865 8.31746 3.22509 8.39314C3.06154 8.46882 2.91639 8.57916 2.7997 8.7165C2.68302 8.85384 2.59758 9.01491 2.54932 9.18855C2.50106 9.36218 2.49112 9.54424 2.52019 9.72209L5.04825 25.1772C5.22287 26.2446 5.77124 27.215 6.59541 27.9153C7.41958 28.6156 8.46587 29 9.54737 29H27.7859C28.8674 29 29.9137 28.6156 30.7378 27.9153C31.562 27.215 32.1104 26.2446 32.285 25.1772L34.813 9.72209ZM17.4233 15.3236V21.9546C17.4233 22.2843 17.5543 22.6006 17.7875 22.8337C18.0206 23.0669 18.3369 23.1979 18.6666 23.1979C18.9964 23.1979 19.3126 23.0669 19.5458 22.8337C19.7789 22.6006 19.9099 22.2843 19.9099 21.9546V15.3236C19.9099 14.9939 19.7789 14.6776 19.5458 14.4445C19.3126 14.2113 18.9964 14.0803 18.6666 14.0803C18.3369 14.0803 18.0206 14.2113 17.7875 14.4445C17.5543 14.6776 17.4233 14.9939 17.4233 15.3236ZM24.0543 15.3236V21.9546C24.0543 22.2843 24.1853 22.6006 24.4184 22.8337C24.6516 23.0669 24.9679 23.1979 25.2976 23.1979C25.6273 23.1979 25.9436 23.0669 26.1767 22.8337C26.4099 22.6006 26.5409 22.2843 26.5409 21.9546V15.3236C26.5409 14.9939 26.4099 14.6776 26.1767 14.4445C25.9436 14.2113 25.6273 14.0803 25.2976 14.0803C24.9679 14.0803 24.6516 14.2113 24.4184 14.4445C24.1853 14.6776 24.0543 14.9939 24.0543 15.3236ZM10.7923 15.3236V21.9546C10.7923 22.2843 10.9233 22.6006 11.1565 22.8337C11.3897 23.0669 11.7059 23.1979 12.0356 23.1979C12.3654 23.1979 12.6816 23.0669 12.9148 22.8337C13.148 22.6006 13.279 22.2843 13.279 21.9546V15.3236C13.279 14.9939 13.148 14.6776 12.9148 14.4445C12.6816 14.2113 12.3654 14.0803 12.0356 14.0803C11.7059 14.0803 11.3897 14.2113 11.1565 14.4445C10.9233 14.6776 10.7923 14.9939 10.7923 15.3236Z" fill="white" fill-opacity="0.5"/>
<path d="M35.2441 8.2782H2.08926C1.75951 8.2782 1.44327 8.40919 1.2101 8.64236C0.976938 8.87552 0.845947 9.19176 0.845947 9.52151C0.845947 9.85125 0.976938 10.1675 1.2101 10.4007C1.44327 10.6338 1.75951 10.7648 2.08926 10.7648H35.2441C35.5739 10.7648 35.8901 10.6338 36.1233 10.4007C36.3565 10.1675 36.4874 9.85125 36.4874 9.52151C36.4874 9.19176 36.3565 8.87552 36.1233 8.64236C35.8901 8.40919 35.5739 8.2782 35.2441 8.2782Z" fill="#858582"/>
</svg>
