<svg width="30" height="29" viewBox="0 0 30 29" fill="none" xmlns="http://www.w3.org/2000/svg">
<path d="M29.8219 23.9777C29.7978 24.1495 29.7299 24.3121 29.6247 24.45C29.5195 24.5879 29.3805 24.6963 29.2211 24.7648L19.8997 28.9077C19.7669 28.9686 19.6223 29.0001 19.4761 28.9998C19.2772 29.0025 19.0822 28.9448 18.9169 28.8341C18.771 28.7406 18.651 28.6119 18.5677 28.4599C18.4845 28.3079 18.4407 28.1374 18.4404 27.9641V15.5356C18.4408 15.3364 18.4987 15.1415 18.6071 14.9743C18.7155 14.8072 18.8698 14.6748 19.0515 14.5931C19.232 14.5085 19.4335 14.4791 19.6306 14.5086C19.8278 14.538 20.0119 14.6251 20.1597 14.7588L29.4811 23.0445C29.6116 23.159 29.7111 23.3045 29.7707 23.4676C29.8302 23.6306 29.8478 23.806 29.8219 23.9777Z" fill="white" fill-opacity="0.5"/>
<path d="M17.4046 15.5357C17.4051 15.1363 17.5211 14.7457 17.7384 14.4107C17.9558 14.0757 18.2654 13.8107 18.6299 13.6476C18.8951 13.5251 19.184 13.4625 19.4761 13.4642C19.9827 13.4644 20.4714 13.6518 20.8484 13.9904L25.6903 18.2886V5.17856C25.6879 4.35525 25.3597 3.56637 24.7775 2.9842C24.1954 2.40203 23.4065 2.07388 22.5832 2.07142H20.5118V1.03571C20.5118 0.761023 20.4026 0.497586 20.2084 0.303353C20.0142 0.109119 19.7507 0 19.4761 0C19.2014 0 18.9379 0.109119 18.7437 0.303353C18.5495 0.497586 18.4403 0.761023 18.4403 1.03571V2.07142H8.08323V1.03571C8.08323 0.761023 7.97411 0.497586 7.77988 0.303353C7.58564 0.109119 7.32221 0 7.04752 0C6.77283 0 6.50939 0.109119 6.31516 0.303353C6.12093 0.497586 6.01181 0.761023 6.01181 1.03571V2.07142H3.94039C3.11708 2.07388 2.32819 2.40203 1.74603 2.9842C1.16386 3.56637 0.835711 4.35525 0.833252 5.17856V21.7499C0.835711 22.5732 1.16386 23.3621 1.74603 23.9443C2.32819 24.5265 3.11708 24.8546 3.94039 24.8571H17.4046V15.5357ZM2.90467 8.28569V5.17856C2.90467 4.90387 3.01379 4.64043 3.20803 4.4462C3.40226 4.25196 3.6657 4.14284 3.94039 4.14284H6.01181V5.17856C6.01181 5.45324 6.12093 5.71668 6.31516 5.91091C6.50939 6.10515 6.77283 6.21427 7.04752 6.21427C7.32221 6.21427 7.58564 6.10515 7.77988 5.91091C7.97411 5.71668 8.08323 5.45324 8.08323 5.17856V4.14284H18.4403V5.17856C18.4403 5.45324 18.5495 5.71668 18.7437 5.91091C18.9379 6.10515 19.2014 6.21427 19.4761 6.21427C19.7507 6.21427 20.0142 6.10515 20.2084 5.91091C20.4026 5.71668 20.5118 5.45324 20.5118 5.17856V4.14284H22.5832C22.8579 4.14284 23.1213 4.25196 23.3155 4.4462C23.5098 4.64043 23.6189 4.90387 23.6189 5.17856V8.28569H2.90467ZM15.3332 14.5C15.3332 14.7746 15.2241 15.0381 15.0299 15.2323C14.8356 15.4265 14.5722 15.5357 14.2975 15.5357H13.2618C12.9871 15.5357 12.7237 15.4265 12.5294 15.2323C12.3352 15.0381 12.2261 14.7746 12.2261 14.5C12.2261 14.2253 12.3352 13.9618 12.5294 13.7676C12.7237 13.5734 12.9871 13.4642 13.2618 13.4642H14.2975C14.5722 13.4642 14.8356 13.5734 15.0299 13.7676C15.2241 13.9618 15.3332 14.2253 15.3332 14.5ZM8.08323 19.6785H7.04752C6.77283 19.6785 6.50939 19.5694 6.31516 19.3752C6.12093 19.1809 6.01181 18.9175 6.01181 18.6428C6.01181 18.3681 6.12093 18.1047 6.31516 17.9104C6.50939 17.7162 6.77283 17.6071 7.04752 17.6071H8.08323C8.35792 17.6071 8.62135 17.7162 8.81559 17.9104C9.00982 18.1047 9.11894 18.3681 9.11894 18.6428C9.11894 18.9175 9.00982 19.1809 8.81559 19.3752C8.62135 19.5694 8.35792 19.6785 8.08323 19.6785ZM8.08323 15.5357H7.04752C6.77283 15.5357 6.50939 15.4265 6.31516 15.2323C6.12093 15.0381 6.01181 14.7746 6.01181 14.5C6.01181 14.2253 6.12093 13.9618 6.31516 13.7676C6.50939 13.5734 6.77283 13.4642 7.04752 13.4642H8.08323C8.35792 13.4642 8.62135 13.5734 8.81559 13.7676C9.00982 13.9618 9.11894 14.2253 9.11894 14.5C9.11894 14.7746 9.00982 15.0381 8.81559 15.2323C8.62135 15.4265 8.35792 15.5357 8.08323 15.5357ZM14.2975 19.6785H13.2618C12.9871 19.6785 12.7237 19.5694 12.5294 19.3752C12.3352 19.1809 12.2261 18.9175 12.2261 18.6428C12.2261 18.3681 12.3352 18.1047 12.5294 17.9104C12.7237 17.7162 12.9871 17.6071 13.2618 17.6071H14.2975C14.5722 17.6071 14.8356 17.7162 15.0299 17.9104C15.2241 18.1047 15.3332 18.3681 15.3332 18.6428C15.3332 18.9175 15.2241 19.1809 15.0299 19.3752C14.8356 19.5694 14.5722 19.6785 14.2975 19.6785Z" fill="white" fill-opacity="0.5"/>
</svg>
