<svg width="28" height="29" viewBox="0 0 28 29" fill="none" xmlns="http://www.w3.org/2000/svg">
<path d="M9.8454 27.2213V22.7876C9.8454 21.6558 10.7696 20.7383 11.9097 20.7383H16.0772C16.6247 20.7383 17.1498 20.9542 17.5369 21.3386C17.9241 21.7229 18.1416 22.2441 18.1416 22.7876V27.2213C18.1381 27.6919 18.324 28.1443 18.6579 28.4782C18.9918 28.8122 19.4462 29 19.9202 29H22.7635C24.0914 29.0034 25.3661 28.4821 26.3064 27.5512C27.2466 26.6202 27.775 25.3561 27.775 24.0378V11.4069C27.775 10.3421 27.2995 9.33197 26.4767 8.64876L16.8043 0.980009C15.1218 -0.364585 12.7111 -0.321172 11.0788 1.08312L1.62714 8.64876C0.765449 9.31183 0.250426 10.3249 0.224976 11.4069V24.0249C0.224976 26.7726 2.46868 29 5.23642 29H8.01479C8.99925 29 9.79931 28.2115 9.80645 27.2342L9.8454 27.2213Z" fill="white" fill-opacity="0.5"/>
</svg>
