<svg width="35" height="34" viewBox="0 0 35 34" fill="none" xmlns="http://www.w3.org/2000/svg">
<circle cx="17.3615" cy="17" r="17" transform="rotate(-180 17.3615 17)" fill="white"/>
<path d="M24.6065 13.7314L21.3972 8.3826C21.2866 8.20242 21.1094 8.07318 20.904 8.02296C20.6986 7.97275 20.4817 8.00562 20.3005 8.11443C20.1192 8.22325 19.9882 8.39921 19.936 8.60407C19.8838 8.80893 19.9145 9.02613 20.0215 9.20846L23.2308 14.5573C23.3414 14.7375 23.5186 14.8667 23.724 14.9169C23.9294 14.9671 24.1463 14.9343 24.3275 14.8255C24.5088 14.7166 24.6398 14.5407 24.692 14.3358C24.7443 14.131 24.7135 13.9138 24.6065 13.7314ZM11.7693 14.5573L14.9786 9.20846C15.0856 9.02613 15.1164 8.80893 15.0641 8.60407C15.0119 8.39921 14.8809 8.22325 14.6996 8.11443C14.5184 8.00562 14.3015 7.97275 14.0961 8.02296C13.8907 8.07318 13.7135 8.20242 13.6029 8.3826L10.3936 13.7314C10.2866 13.9138 10.2558 14.131 10.3081 14.3358C10.3603 14.5407 10.4913 14.7166 10.6726 14.8255C10.8538 14.9343 11.0707 14.9671 11.2761 14.9169C11.4815 14.8667 11.6587 14.7375 11.7693 14.5573Z" fill="black"/>
<path d="M27.9196 14.2738C27.9384 14.159 27.932 14.0416 27.9009 13.9295C27.8697 13.8175 27.8146 13.7135 27.7393 13.6249C27.664 13.5363 27.5703 13.4651 27.4648 13.4162C27.3592 13.3674 27.2443 13.3421 27.128 13.342H7.87221C7.75591 13.3421 7.64101 13.3674 7.53546 13.4162C7.42992 13.4651 7.33625 13.5363 7.26095 13.6249C7.18565 13.7135 7.13052 13.8175 7.09937 13.9295C7.06823 14.0416 7.06182 14.159 7.08058 14.2738L8.71197 24.2473C8.82465 24.936 9.17853 25.5623 9.71038 26.0142C10.2422 26.4661 10.9174 26.7142 11.6153 26.7141H23.3849C24.0828 26.7142 24.758 26.4661 25.2899 26.0142C25.8217 25.5623 26.1756 24.936 26.2883 24.2473L27.9196 14.2738ZM16.6978 17.8886V22.1676C16.6978 22.3804 16.7823 22.5845 16.9328 22.735C17.0833 22.8854 17.2873 22.9699 17.5001 22.9699C17.7129 22.9699 17.917 22.8854 18.0674 22.735C18.2179 22.5845 18.3024 22.3804 18.3024 22.1676V17.8886C18.3024 17.6758 18.2179 17.4717 18.0674 17.3212C17.917 17.1708 17.7129 17.0862 17.5001 17.0862C17.2873 17.0862 17.0833 17.1708 16.9328 17.3212C16.7823 17.4717 16.6978 17.6758 16.6978 17.8886ZM20.9769 17.8886V22.1676C20.9769 22.3804 21.0614 22.5845 21.2119 22.735C21.3623 22.8854 21.5664 22.9699 21.7792 22.9699C21.992 22.9699 22.196 22.8854 22.3465 22.735C22.497 22.5845 22.5815 22.3804 22.5815 22.1676V17.8886C22.5815 17.6758 22.497 17.4717 22.3465 17.3212C22.196 17.1708 21.992 17.0862 21.7792 17.0862C21.5664 17.0862 21.3623 17.1708 21.2119 17.3212C21.0614 17.4717 20.9769 17.6758 20.9769 17.8886ZM12.4187 17.8886V22.1676C12.4187 22.3804 12.5032 22.5845 12.6537 22.735C12.8042 22.8854 13.0083 22.9699 13.221 22.9699C13.4338 22.9699 13.6379 22.8854 13.7884 22.735C13.9388 22.5845 14.0234 22.3804 14.0234 22.1676V17.8886C14.0234 17.6758 13.9388 17.4717 13.7884 17.3212C13.6379 17.1708 13.4338 17.0862 13.221 17.0862C13.0083 17.0862 12.8042 17.1708 12.6537 17.3212C12.5032 17.4717 12.4187 17.6758 12.4187 17.8886Z" fill="black"/>
<path d="M28.1978 13.342H6.80245C6.58966 13.342 6.38558 13.4266 6.23512 13.577C6.08465 13.7275 6.00012 13.9316 6.00012 14.1444C6.00012 14.3572 6.08465 14.5612 6.23512 14.7117C6.38558 14.8622 6.58966 14.9467 6.80245 14.9467H28.1978C28.4106 14.9467 28.6147 14.8622 28.7651 14.7117C28.9156 14.5612 29.0001 14.3572 29.0001 14.1444C29.0001 13.9316 28.9156 13.7275 28.7651 13.577C28.6147 13.4266 28.4106 13.342 28.1978 13.342Z" fill="black"/>
</svg>
