<svg width="26" height="29" viewBox="0 0 26 29" fill="none" xmlns="http://www.w3.org/2000/svg">
<path d="M12.8171 13.9693C14.7362 13.9693 16.398 13.281 17.7558 11.9229C19.1137 10.5651 19.802 8.90378 19.802 6.98447C19.802 5.06573 19.1137 3.40419 17.7556 2.0459C16.3975 0.688291 14.7359 0 12.8171 0C10.8977 0 9.2363 0.688291 7.87852 2.04613C6.52074 3.40396 5.83217 5.06556 5.83217 6.98447C5.83217 8.90378 6.52068 10.5654 7.87875 11.9232C9.23681 13.2808 10.8984 13.9693 12.8171 13.9693ZM25.0387 22.2994C24.9995 21.7344 24.9204 21.1179 24.8037 20.467C24.686 19.8112 24.5345 19.1913 24.3531 18.6247C24.1657 18.039 23.9108 17.4607 23.5958 16.9064C23.2687 16.3312 22.8847 15.8302 22.4536 15.4181C22.0029 14.9869 21.4511 14.6402 20.813 14.3872C20.1772 14.1357 19.4725 14.0083 18.7187 14.0083C18.4227 14.0083 18.1364 14.1297 17.5835 14.4897C17.1904 14.7457 16.7962 14.9998 16.4009 15.2521C16.021 15.4942 15.5064 15.721 14.8707 15.9263C14.2505 16.127 13.6209 16.2288 12.9994 16.2288C12.3779 16.2288 11.7484 16.127 11.1276 15.9263C10.4926 15.7212 9.978 15.4944 9.59851 15.2524C9.15842 14.9711 8.76024 14.7145 8.41484 14.4895C7.8626 14.1295 7.57606 14.008 7.28006 14.008C6.52601 14.008 5.82157 14.1357 5.1859 14.3875C4.54825 14.64 3.99623 14.9867 3.54509 15.4183C3.11434 15.8307 2.73004 16.3313 2.40345 16.9064C2.08865 17.4606 1.83377 18.0388 1.64612 18.6249C1.46487 19.1915 1.31336 19.8112 1.19566 20.467C1.07904 21.117 0.999853 21.7337 0.960658 22.3001C0.921668 22.8701 0.902342 23.4412 0.902715 24.0125C0.902715 25.5264 1.38393 26.7518 2.33288 27.6556C3.2701 28.5476 4.51018 29 6.01823 29H19.9818C21.4899 29 22.7295 28.5478 23.667 27.6557C24.6161 26.7525 25.0974 25.5268 25.0974 24.0123C25.0971 23.428 25.0775 22.8517 25.0387 22.2994Z" fill="white" fill-opacity="0.5"/>
</svg>
