<svg width="63" height="49" viewBox="0 0 63 49" fill="none" xmlns="http://www.w3.org/2000/svg">
<g clip-path="url(#clip0_0_309)">
<path d="M16.0613 12.3256C16.7754 14.7949 17.4413 17.2771 18.0589 19.7723C18.147 20.1007 18.2638 20.2661 18.6143 20.3377C18.999 20.4209 19.5232 20.2906 19.8746 20.1342C20.3394 19.9371 20.8151 19.6645 21.1552 19.273C21.3623 19.0415 21.7385 18.6299 21.6479 18.2919C20.9933 15.6202 20.2782 12.9545 19.5078 10.3139C19.4301 10.0242 18.8496 9.98316 18.6461 9.99634C18.1855 10.0163 17.6602 10.2194 17.276 10.4467C16.6446 10.8335 15.8043 11.4834 16.0465 12.3088L16.0613 12.3256Z" fill="#F7FF88"/>
<path d="M26.8123 8.63426L28.6647 15.9646C28.7528 16.293 28.8696 16.4584 29.2202 16.53C29.6049 16.6132 30.129 16.4829 30.4805 16.3265C30.9453 16.1294 31.4209 15.8568 31.7611 15.4653C31.9585 15.2364 32.3444 14.8222 32.2537 14.4842L30.4013 7.15384C30.3132 6.82545 30.1963 6.66008 29.8458 6.58845C29.4611 6.50527 28.937 6.63552 28.5855 6.79193C28.1207 6.98908 27.6451 7.26162 27.3049 7.65312C27.1075 7.88209 26.7216 8.29621 26.8123 8.63426Z" fill="#F7FF88"/>
<path d="M6.57015 38.2394C13.2373 42.7149 21.4992 43.9878 29.3361 42.6724C37.1729 41.3571 45.0371 36.8248 50.7472 30.8618C54.0215 27.4365 56.6832 23.5025 58.7865 19.2628C59.2412 18.3333 57.9103 18.2347 57.3545 18.3631C56.3468 18.5817 55.415 19.2768 54.9578 20.1967C51.7973 26.594 46.9572 32.365 40.8058 36.0651C34.6544 39.7652 27.7948 41.0566 20.9187 39.971C16.9517 39.3475 13.2013 37.9101 9.85931 35.6798C8.67418 34.8899 5.22319 37.348 6.56049 38.242L6.57015 38.2394Z" fill="#F7FF88"/>
</g>
<defs>
<clipPath id="clip0_0_309">
<rect width="55.73" height="35.02" fill="white" transform="translate(0 14.439) rotate(-15.0159)"/>
</clipPath>
</defs>
</svg>
