<svg width="89" height="46" viewBox="0 0 89 46" fill="none" xmlns="http://www.w3.org/2000/svg">
<g clip-path="url(#clip0_0_672)">
<path d="M76.9588 13.4271V24.4289H73.0577V16.7114H69.3014V24.4289H65.4003V13.4264H76.9588V13.4271Z" fill="white"/>
<path fill-rule="evenodd" clip-rule="evenodd" d="M57.3884 24.8223C60.8807 24.8223 63.4739 22.666 63.4739 19.3972C63.4739 16.2333 61.5606 14.179 58.363 14.179C56.8872 14.179 55.6695 14.7022 54.7523 15.6048C54.9713 13.7392 56.5379 12.3772 58.2628 12.3772C58.6609 12.3772 61.6578 12.3708 61.6578 12.3708L63.3525 9.10492C63.3525 9.10492 59.59 9.19117 57.8409 9.19117C53.8444 9.26129 51.145 12.9194 51.145 17.3624C51.145 22.5385 53.7778 24.8223 57.3884 24.8223ZM57.4096 17.0718C58.7063 17.0718 59.6052 17.9298 59.6052 19.3968C59.6052 20.7172 58.8065 21.805 57.4096 21.808C56.0735 21.808 55.1746 20.8 55.1746 19.4193C55.1746 17.9519 56.0735 17.0718 57.4096 17.0718Z" fill="white"/>
<path d="M47.9697 20.7457C47.9697 20.7457 47.0484 21.2804 45.6725 21.3817C44.0906 21.4289 42.6811 20.4228 42.6811 18.6352C42.6811 16.8914 43.9249 15.8921 45.6326 15.8921C46.6798 15.8921 48.0651 16.6229 48.0651 16.6229C48.0651 16.6229 49.0787 14.7498 49.6037 13.8131C48.6422 13.0792 47.3616 12.6768 45.8721 12.6768C42.1129 12.6768 39.2012 15.1451 39.2012 18.6131C39.2012 22.1253 41.9378 24.5362 45.8721 24.4634C46.9717 24.4222 48.4888 24.0333 49.4135 23.4352L47.9697 20.7457Z" fill="white"/>
<path d="M0 10.377L5.4115 20.1176V26.0591L0.00633054 35.7806L0 10.377Z" fill="#5B57A2"/>
<path d="M20.778 16.5732L25.8487 13.4434L36.2263 13.4337L20.778 22.9639V16.5732Z" fill="#D90751"/>
<path d="M20.7492 10.3197L20.7779 23.2159L15.3538 19.8597V0.582031L20.7492 10.3197Z" fill="#FAB718"/>
<path d="M36.2263 13.4337L25.8483 13.4434L20.7492 10.3197L15.3538 0.582031L36.2263 13.4337Z" fill="#ED6F26"/>
<path d="M20.7779 35.8347V29.5778L15.3538 26.2853L15.3567 45.582L20.7779 35.8347Z" fill="#63B22F"/>
<path d="M25.8361 32.7334L5.41113 20.1176L0 10.377L36.2044 32.7206L25.8361 32.7334Z" fill="#1487C9"/>
<path d="M15.3572 45.582L20.7776 35.8346L25.8357 32.7334L36.204 32.7206L15.3572 45.582Z" fill="#017F36"/>
<path d="M0.00634766 35.7806L15.3981 26.2856L10.2235 23.0884L5.41151 26.0591L0.00634766 35.7806Z" fill="#984995"/>
<path d="M42.6823 31.8333C42.5631 31.9863 42.4064 32.1018 42.2183 32.1798C42.0254 32.2589 41.8189 32.2991 41.6106 32.2983C41.4034 32.3011 41.1974 32.2663 41.0025 32.1955C40.8274 32.1315 40.6674 32.0317 40.5325 31.9023C40.3993 31.7727 40.2948 31.6163 40.2257 31.4433C40.1508 31.2538 40.1135 31.0513 40.1158 30.8474C40.1158 30.6449 40.1505 30.4574 40.2223 30.2797C40.2912 30.1015 40.3914 29.9489 40.5169 29.8207C40.6424 29.6898 40.7928 29.59 40.9619 29.512C41.1343 29.437 41.3223 29.3965 41.529 29.3965C41.7517 29.3965 41.9584 29.4247 42.1464 29.4805C42.3345 29.5368 42.4942 29.6305 42.6257 29.7618L42.3971 30.1518C42.2865 30.0509 42.1562 29.9742 42.0146 29.9268C41.88 29.8831 41.7394 29.8611 41.5979 29.8615C41.4728 29.8615 41.3536 29.8863 41.2378 29.9332C41.1237 29.9794 41.0194 30.0473 40.9306 30.133C40.8398 30.2212 40.7683 30.3275 40.7206 30.445C40.6673 30.5665 40.6424 30.7008 40.6424 30.8504C40.6424 31.0034 40.6703 31.1407 40.7236 31.2592C40.7772 31.381 40.849 31.4842 40.9399 31.5712C41.0308 31.6589 41.1373 31.7242 41.2594 31.768C41.3819 31.8149 41.5104 31.8367 41.6482 31.8367C41.8172 31.8367 41.971 31.8022 42.1025 31.7365C42.2328 31.6732 42.3498 31.5854 42.4473 31.4778L42.6823 31.8333ZM43.3276 32.2327V29.4558H43.8229V31.5247L45.4335 29.4558H45.9287V32.233H45.4335V30.1642L43.8229 32.233L43.3276 32.2327ZM49.2095 31.8333C49.0876 31.9876 48.9278 32.107 48.7458 32.1798C48.5528 32.2588 48.3462 32.2991 48.1377 32.2983C47.9307 32.3011 47.7248 32.2663 47.53 32.1955C47.3548 32.1315 47.1947 32.0317 47.0597 31.9023C46.9265 31.7727 46.822 31.6163 46.7528 31.4433C46.678 31.2538 46.6407 31.0513 46.643 30.8474C46.643 30.6449 46.6776 30.4574 46.7495 30.2797C46.8187 30.1015 46.9189 29.9489 47.044 29.8207C47.1695 29.6898 47.32 29.59 47.489 29.512C47.6676 29.4328 47.8611 29.3934 48.0562 29.3965C48.2789 29.3965 48.4855 29.4247 48.6736 29.4805C48.8617 29.5368 49.0214 29.6305 49.1532 29.7618L48.9242 30.1518C48.8138 30.0508 48.6837 29.9742 48.5421 29.9268C48.4075 29.8831 48.2669 29.8611 48.1255 29.8615C47.8765 29.8623 47.6374 29.9596 47.4578 30.133C47.3678 30.2219 47.2964 30.328 47.2477 30.445C47.1945 30.5665 47.1695 30.7008 47.1695 30.8504C47.1695 31.0034 47.1978 31.1407 47.2511 31.2592C47.3043 31.381 47.3762 31.4842 47.4671 31.5712C47.5579 31.6589 47.6648 31.7242 47.7869 31.768C47.9091 31.8115 48.0376 31.8367 48.1753 31.8367C48.3448 31.8367 48.4952 31.8022 48.6297 31.7365C48.7599 31.6732 48.877 31.5854 48.9745 31.4778L49.2095 31.8333ZM49.4634 29.4558H52.0046V29.9489H50.9831V32.2327H50.4879V29.9489H49.4664V29.4558H49.4634Z" fill="white"/>
<path fill-rule="evenodd" clip-rule="evenodd" d="M54.3174 32.2049C54.5054 32.1456 54.6652 32.0549 54.803 31.9304L54.6525 31.5434C54.5617 31.6248 54.4395 31.6934 54.2924 31.7496C54.145 31.8059 53.9789 31.8336 53.7971 31.8336C53.5246 31.8336 53.2989 31.762 53.1201 31.6154C52.9418 31.4684 52.8446 31.2629 52.8226 31.0004H54.9661C54.988 30.9036 54.9973 30.7945 54.9973 30.6666C54.9973 30.4761 54.9627 30.3048 54.8938 30.1488C54.8297 29.9973 54.736 29.8603 54.6183 29.746C54.4989 29.6328 54.3582 29.5448 54.2045 29.4873C54.0437 29.4244 53.8725 29.3926 53.7 29.3935C53.468 29.3935 53.2643 29.434 53.0859 29.509C52.9173 29.5805 52.7647 29.6856 52.6375 29.818C52.5141 29.9497 52.4192 30.1059 52.359 30.2766C52.2928 30.4584 52.2599 30.6508 52.2618 30.8444C52.2618 31.063 52.2994 31.2625 52.3683 31.4406C52.4353 31.6132 52.5379 31.7695 52.6692 31.8993C52.7977 32.0268 52.9541 32.1239 53.1391 32.1925C53.3373 32.2633 53.5463 32.2981 53.7566 32.2953C53.9469 32.2941 54.136 32.2634 54.3174 32.2049ZM53.0639 30.0674C53.2173 29.9271 53.421 29.8585 53.678 29.8585C53.9193 29.8585 54.1137 29.9241 54.2548 30.0554C54.3959 30.1863 54.4708 30.3674 54.4834 30.598H52.7913C52.8153 30.3938 52.9122 30.205 53.0639 30.0674Z" fill="white"/>
<path d="M55.671 29.4558H56.1223L57.1941 30.8321L58.2092 29.4558H58.6479V32.2331H58.153V30.2081L57.1877 31.4966H57.1687L56.1663 30.2077V32.2327H55.671V29.4558Z" fill="white"/>
<path fill-rule="evenodd" clip-rule="evenodd" d="M59.9951 29.4652C59.8448 29.5047 59.7013 29.5667 59.5691 29.6489L59.7006 30.0427C59.8134 29.9864 59.9263 29.9396 60.0391 29.8991C60.1519 29.8582 60.296 29.8394 60.4684 29.8394C60.6062 29.8394 60.7161 29.8616 60.8006 29.9051C60.8851 29.9456 60.9477 30.0082 60.9916 30.0832C61.0356 30.1582 61.0639 30.2516 61.0795 30.3607C61.0952 30.4698 61.1015 30.5883 61.1015 30.7166C61.0002 30.6455 60.8847 30.5975 60.763 30.5759C60.6454 30.5524 60.5258 30.5398 60.4059 30.5384C60.2584 30.5384 60.1206 30.5606 59.9888 30.5977C59.8574 30.6352 59.7445 30.6914 59.6537 30.7664C59.5609 30.8413 59.486 30.9361 59.4343 31.0439C59.3791 31.162 59.3513 31.2911 59.3528 31.4216C59.3528 31.6931 59.4314 31.9053 59.5878 32.0553C59.7445 32.2049 59.9512 32.2796 60.2081 32.2796C60.4401 32.2796 60.6252 32.2391 60.766 32.1581C60.9071 32.0767 61.0199 31.9833 61.1015 31.8772V32.2361H61.5651V30.5324C61.5651 30.1702 61.4869 29.8897 61.3272 29.6928C61.1704 29.4963 60.8915 29.3966 60.4968 29.3966C60.321 29.3966 60.1549 29.4213 59.9951 29.4652ZM60.823 31.7152C60.7101 31.7962 60.5627 31.8333 60.3809 31.8333C60.2212 31.8333 60.0957 31.7928 60.0082 31.7148C59.9203 31.6338 59.8764 31.5277 59.8764 31.3964C59.8764 31.3188 59.892 31.2532 59.9266 31.1939C59.9613 31.1347 60.0082 31.0878 60.0614 31.0503C60.1197 31.0111 60.1844 30.9825 60.2525 30.9659C60.3247 30.9472 60.3966 30.9378 60.4718 30.9378C60.7165 30.9378 60.9261 30.9971 61.0985 31.1219V31.4744C61.0173 31.5661 60.9247 31.6473 60.823 31.7152ZM65.9369 28.4789C66.0371 28.4324 66.1309 28.3544 66.2188 28.2389L65.9492 27.8489C65.8803 27.9427 65.8021 28.0079 65.7142 28.0424C65.6211 28.0791 65.5245 28.1062 65.426 28.1234L65.3322 28.1403C65.2506 28.1546 65.1631 28.1703 65.0689 28.1861C64.9178 28.2142 64.7705 28.2603 64.6302 28.3233C64.4075 28.4201 64.2292 28.5509 64.0944 28.7163C63.9596 28.8817 63.8531 29.0688 63.7808 29.2751C63.7076 29.484 63.6583 29.7006 63.6337 29.9208C63.6084 30.1458 63.5961 30.3607 63.5961 30.5666C63.5961 30.8321 63.6304 31.0721 63.6993 31.2873C63.7685 31.5029 63.8653 31.6837 63.9938 31.8303C64.1223 31.9803 64.2761 32.0928 64.4578 32.1738C64.6395 32.2548 64.8432 32.2953 65.0719 32.2953C65.2819 32.2953 65.4763 32.2548 65.6517 32.1798C65.8208 32.1077 65.9741 32.0029 66.103 31.8712C66.2281 31.7429 66.3287 31.5899 66.3976 31.4186C66.4694 31.2468 66.5041 31.0627 66.5041 30.8692C66.5041 30.6603 66.4728 30.4702 66.4132 30.3014C66.3583 30.1406 66.2708 29.9929 66.1563 29.8679C66.0414 29.745 65.9012 29.649 65.7455 29.5867C65.574 29.5187 65.391 29.4848 65.2067 29.4869C65.0875 29.4869 64.9717 29.5027 64.8589 29.5338C64.7491 29.565 64.6437 29.6101 64.5453 29.6681C64.4498 29.7231 64.3623 29.7913 64.2854 29.8706C64.2102 29.9489 64.1476 30.0363 64.1037 30.1361H64.091C64.1007 30.0082 64.1163 29.8773 64.1443 29.7431C64.1726 29.6088 64.2131 29.4806 64.2668 29.3591C64.32 29.2376 64.3889 29.1281 64.4734 29.0283C64.5641 28.9276 64.6752 28.8478 64.7993 28.7943C64.9357 28.7289 65.0801 28.6817 65.2286 28.6541L65.327 28.6361C65.4249 28.6181 65.5184 28.6008 65.6077 28.5821C65.7269 28.5573 65.8364 28.5254 65.9369 28.4789ZM64.1945 31.1471C64.1461 30.9895 64.1228 30.8252 64.1256 30.6603C64.1466 30.5657 64.1849 30.4758 64.2385 30.3952C64.2917 30.3108 64.3606 30.2362 64.4422 30.1702C64.6262 30.025 64.8537 29.947 65.0875 29.9489C65.3791 29.9489 65.5984 30.0393 65.7518 30.2174C65.9056 30.3982 65.9809 30.6228 65.9809 30.8943C65.9809 31.0286 65.9555 31.1504 65.912 31.2626C65.8696 31.3732 65.8056 31.4741 65.7238 31.5593C65.642 31.6445 65.544 31.7123 65.4357 31.7587C65.3229 31.8086 65.2003 31.8337 65.0626 31.8337C64.9248 31.8337 64.7993 31.8056 64.6835 31.7493C64.5684 31.6942 64.4667 31.6143 64.3856 31.5153C64.3006 31.405 64.2359 31.2803 64.1945 31.1471ZM70.302 29.4558H69.8067V32.2331H70.302V29.4558ZM67.2183 29.4558H67.7136V30.2891H68.1712C68.3872 30.2891 68.5626 30.3172 68.7037 30.3701C68.8449 30.4233 68.9577 30.4949 69.0422 30.5823C69.1268 30.6697 69.1864 30.7728 69.221 30.8879C69.2552 31.0034 69.2742 31.1219 69.2742 31.2468C69.2742 31.3717 69.2552 31.4906 69.2147 31.6091C69.177 31.7276 69.1111 31.8303 69.0232 31.9241C68.9357 32.0178 68.8166 32.0928 68.6661 32.1491C68.5157 32.2049 68.334 32.2361 68.1146 32.2361H67.2153V29.4558H67.2183ZM67.7136 30.7537V31.7711H68.074C68.3217 31.7711 68.4971 31.7276 68.5972 31.6398C68.6978 31.5524 68.7477 31.4279 68.7477 31.2626C68.7477 31.0938 68.6944 30.9663 68.5943 30.8786C68.4907 30.7912 68.3183 30.7473 68.0804 30.7473H67.7136V30.7537Z" fill="white"/>
<path d="M73.5768 31.8333C73.4576 31.9863 73.3008 32.1018 73.1128 32.1798C72.9198 32.2588 72.7134 32.2991 72.505 32.2983C72.2979 32.3011 72.0919 32.2663 71.8969 32.1955C71.7218 32.1316 71.5618 32.0317 71.427 31.9023C71.2938 31.7726 71.1892 31.6162 71.1198 31.4433C71.0452 31.2537 71.0081 31.0513 71.0103 30.8474C71.0103 30.6449 71.0446 30.4574 71.1168 30.2797C71.1857 30.1015 71.2859 29.9489 71.4114 29.8207C71.5368 29.6898 71.6869 29.59 71.8563 29.512C72.0349 29.4328 72.2284 29.3934 72.4235 29.3965C72.6458 29.3965 72.8528 29.4247 73.0409 29.4805C73.229 29.5368 73.3887 29.6305 73.5202 29.7618L73.2915 30.1518C73.1809 30.0509 73.0507 29.9742 72.9091 29.9268C72.7745 29.8831 72.6338 29.8611 72.4924 29.8615C72.3673 29.8615 72.2481 29.8863 72.1319 29.9332C72.0179 29.9795 71.9137 30.0473 71.8251 30.133C71.735 30.2218 71.6635 30.3279 71.615 30.445C71.5618 30.5665 71.5368 30.7008 71.5368 30.8504C71.5368 31.0034 71.5648 31.1407 71.618 31.2592C71.6713 31.381 71.7435 31.4842 71.8344 31.5712C71.9252 31.6589 72.0317 31.7242 72.1539 31.768C72.2764 31.8115 72.4049 31.8367 72.5427 31.8367C72.7117 31.8367 72.8622 31.8022 72.997 31.7365C73.1272 31.6732 73.2443 31.5854 73.3418 31.4778L73.5768 31.8333ZM73.8304 29.4558H76.3719V29.9489H75.3501V32.2327H74.8552V29.9489H73.8337V29.4558H73.8304Z" fill="white"/>
<path fill-rule="evenodd" clip-rule="evenodd" d="M77.406 29.4561H76.9108V33.4686H77.406V32.1051C77.5062 32.1708 77.6254 32.2176 77.7632 32.2488C77.9009 32.2799 78.0451 32.2953 78.1925 32.2953C78.4119 32.2953 78.6092 32.2548 78.788 32.1801C78.9594 32.1063 79.1148 31.9993 79.2453 31.8651C79.3737 31.7305 79.4709 31.5745 79.5398 31.3904C79.6087 31.2066 79.6433 31.0098 79.6433 30.8009C79.6433 30.5946 79.6121 30.4045 79.5525 30.2328C79.4964 30.0697 79.4091 29.9192 79.2955 29.7899C79.1841 29.6638 79.0459 29.5646 78.8911 29.4996C78.722 29.4264 78.5393 29.3903 78.3553 29.3935C78.1612 29.3935 77.9795 29.431 77.8071 29.506C77.6347 29.581 77.4999 29.671 77.406 29.7835V29.4561ZM77.7509 29.971C77.892 29.896 78.0454 29.8585 78.2115 29.8585C78.3556 29.8585 78.4841 29.8803 78.6003 29.9271C78.7131 29.974 78.807 30.0396 78.8855 30.127C78.9637 30.2144 79.0233 30.3145 79.0609 30.4326C79.1015 30.5511 79.1205 30.6794 79.1205 30.8196C79.1205 30.9696 79.0952 31.1035 79.0516 31.2284C79.0105 31.3468 78.9453 31.4552 78.8602 31.5468C78.7747 31.6372 78.6711 31.7084 78.5563 31.7556C78.4284 31.8096 78.2906 31.8362 78.1519 31.8336C78.0175 31.8336 77.892 31.8183 77.7728 31.7871C77.6424 31.7514 77.5186 31.6944 77.4064 31.6184V30.2421C77.4939 30.1364 77.6101 30.046 77.7509 29.971ZM83.4413 29.4558H82.946V32.233H83.4413V29.4558ZM80.3546 29.4558H80.8499V30.289H81.3071C81.5235 30.289 81.6989 30.3171 81.84 30.37C81.9812 30.4233 82.094 30.4949 82.1785 30.5823C82.2631 30.6696 82.3226 30.7728 82.3569 30.8879C82.3915 31.0034 82.4101 31.1219 82.4101 31.2468C82.4101 31.3716 82.3915 31.4905 82.3509 31.609C82.3133 31.7275 82.2474 31.8303 82.1595 31.924C82.072 32.0178 81.9529 32.0928 81.8024 32.149C81.652 32.2049 81.4702 32.236 81.2509 32.236H80.3516V29.4558H80.3546ZM80.8532 30.7536V31.771H81.2137C81.4609 31.771 81.6367 31.7275 81.7369 31.6398C81.837 31.5524 81.8873 31.4279 81.8873 31.2625C81.8873 31.0938 81.8341 30.9663 81.7339 30.8785C81.6304 30.7911 81.458 30.7473 81.22 30.7473H80.8532V30.7536Z" fill="white"/>
<path d="M85.8168 30.7946L86.8758 32.2331H86.2681L85.45 31.1096L84.6196 32.2331H84.0431L85.0958 30.8193L84.1057 29.4558H84.7138L85.469 30.5043L86.2364 29.4558H86.8133L85.8168 30.7946ZM42.3159 35.6654H40.7962V37.9807H40.3009V35.2038H42.8108V37.9807H42.3159V35.6654ZM45.6215 35.6966H44.644L44.6124 36.1646C44.5781 36.5609 44.5312 36.8793 44.4653 37.1223C44.3994 37.3661 44.3178 37.5532 44.224 37.6841C44.1301 37.8153 44.0203 37.9057 43.8948 37.9496C43.7653 37.9968 43.6284 38.0201 43.4908 38.0182L43.4531 37.5374C43.5064 37.5404 43.569 37.5281 43.6378 37.4969C43.7071 37.4658 43.776 37.3972 43.8415 37.2944C43.9075 37.1879 43.967 37.0383 44.0203 36.8448C44.0735 36.6483 44.1082 36.3926 44.1268 36.0708L44.1771 35.2064H46.1168V37.9837H45.6215V35.6966Z" fill="white"/>
<path fill-rule="evenodd" clip-rule="evenodd" d="M47.4518 35.2102C47.2916 35.2537 47.1475 35.3159 47.0254 35.3939L47.1572 35.7873C47.27 35.731 47.3829 35.6842 47.4953 35.6437C47.6082 35.6032 47.7526 35.5844 47.9247 35.5844C48.0628 35.5844 48.1723 35.6062 48.2569 35.6497C48.3418 35.6905 48.4043 35.7528 48.4483 35.8278C48.4918 35.9028 48.5201 35.9965 48.5358 36.1053C48.5514 36.2148 48.5577 36.3333 48.5577 36.4612C48.4564 36.3902 48.3409 36.3423 48.2192 36.3209C48.1016 36.2973 47.9821 36.2848 47.8621 36.2834C47.715 36.2834 47.5769 36.3052 47.4454 36.3427C47.3136 36.3802 47.2008 36.4364 47.1099 36.5114C47.0172 36.5863 46.9422 36.6811 46.8906 36.7889C46.8355 36.907 46.8077 37.0361 46.8094 37.1665C46.8094 37.4377 46.8876 37.6503 47.0444 37.7999C47.2008 37.9495 47.4078 38.0245 47.6648 38.0245C47.8968 38.0245 48.0815 37.984 48.2226 37.9027C48.3634 37.8217 48.4762 37.7279 48.5577 37.6218V37.9807H49.0217V36.277C49.0217 35.9152 48.9432 35.6343 48.7834 35.4378C48.6266 35.2409 48.3477 35.1415 47.953 35.1415C47.7836 35.1417 47.6151 35.165 47.4518 35.2102ZM48.2822 37.4594C48.1697 37.5408 48.0223 37.5783 47.8405 37.5783C47.6774 37.5783 47.5553 37.5378 47.4678 37.4594C47.3799 37.3784 47.3359 37.2723 47.3359 37.1414C47.3359 37.0634 47.3516 36.9978 47.3862 36.9385C47.4205 36.8793 47.4678 36.8324 47.521 36.7949C47.5743 36.7574 47.6398 36.7293 47.7121 36.7105C47.7837 36.6919 47.8574 36.6826 47.9314 36.6828C48.1757 36.6828 48.3857 36.742 48.5581 36.8665V37.219C48.4767 37.3107 48.384 37.3915 48.2822 37.4594Z" fill="white"/>
<path d="M49.507 35.2038H52.0485V35.6965H51.0267V37.9807H50.5318V35.6969H49.5103V35.2038H49.507Z" fill="white"/>
<path fill-rule="evenodd" clip-rule="evenodd" d="M54.3613 37.9526C54.5494 37.8933 54.7091 37.8026 54.8469 37.6781L54.6965 37.2911C54.6056 37.3724 54.4834 37.4411 54.336 37.4973C54.1889 37.5536 54.0228 37.5813 53.8411 37.5813C53.5685 37.5813 53.3428 37.5097 53.1641 37.3631C52.9853 37.2164 52.8885 37.0106 52.8666 36.7481H55.01C55.0316 36.6517 55.0413 36.5422 55.0413 36.4143C55.0413 36.2242 55.0066 36.0524 54.9378 35.8964C54.8736 35.745 54.7797 35.6081 54.6618 35.4941C54.5427 35.3806 54.4021 35.2925 54.2485 35.2349C54.0876 35.1721 53.9164 35.1403 53.7439 35.1412C53.5119 35.1412 53.3082 35.1817 53.1298 35.2567C52.9611 35.328 52.8085 35.4331 52.6815 35.5657C52.558 35.6975 52.463 35.8537 52.4026 36.0243C52.3365 36.2061 52.3036 36.3985 52.3054 36.5921C52.3054 36.8107 52.343 37.0102 52.4119 37.1883C52.4811 37.3661 52.5843 37.5191 52.7128 37.6469C52.8412 37.7748 52.998 37.8716 53.1831 37.9402C53.3811 38.0111 53.59 38.046 53.8001 38.0433C53.9852 38.0433 54.1732 38.0118 54.3613 37.9526ZM53.1049 35.8121C53.2583 35.6718 53.462 35.6032 53.7189 35.6032C53.9636 35.6032 54.1546 35.6718 54.2958 35.7997C54.4365 35.9309 54.5117 36.1117 54.5244 36.3427H52.8323C52.8562 36.1384 52.9531 35.9498 53.1049 35.8121ZM55.2826 35.2038H55.9093L56.8648 36.5426L55.8434 37.9807H55.2357L56.307 36.5422L55.2826 35.2038ZM56.987 35.2038H57.4823V37.9807H56.987V35.2038ZM59.2526 37.9807L58.1622 36.5422L59.1807 35.2034H58.5663L57.6044 36.5422L58.6385 37.9807H59.2526ZM61.5152 37.9526C61.7032 37.8933 61.863 37.8026 62.0008 37.6781L61.8503 37.2911C61.7595 37.3724 61.6373 37.4411 61.4902 37.4973C61.3428 37.5536 61.1767 37.5813 60.995 37.5813C60.7224 37.5813 60.4967 37.5097 60.318 37.3631C60.1396 37.2164 60.0424 37.0106 60.0204 36.7481H62.1639C62.1859 36.6517 62.1952 36.5422 62.1952 36.4143C62.1952 36.2242 62.1609 36.0524 62.0916 35.8964C62.0275 35.7451 61.9338 35.6082 61.8161 35.4941C61.6968 35.3806 61.5561 35.2925 61.4024 35.2349C61.2415 35.1721 61.0703 35.1403 60.8978 35.1412C60.6662 35.1412 60.4625 35.1817 60.2837 35.2567C60.1151 35.3281 59.9627 35.4332 59.8357 35.5657C59.712 35.6973 59.617 35.8535 59.5568 36.0243C59.4906 36.2061 59.4577 36.3985 59.4596 36.5921C59.4596 36.8107 59.4972 37.0102 59.5661 37.1883C59.635 37.3661 59.7385 37.5191 59.867 37.6469C59.9955 37.7748 60.1519 37.8716 60.337 37.9402C60.5351 38.0111 60.7441 38.046 60.9544 38.0433C61.1448 38.0419 61.3339 38.0113 61.5152 37.9526ZM60.2588 35.8121C60.4126 35.6718 60.6163 35.6032 60.8732 35.6032C61.1145 35.6032 61.3085 35.6718 61.4496 35.7997C61.5908 35.9309 61.666 36.1117 61.6783 36.3427H59.9862C60.0101 36.1384 60.107 35.9498 60.2588 35.8121ZM64.2042 34.2708C63.9126 34.2708 63.7528 34.1084 63.7279 33.7841H63.2609C63.2609 33.9086 63.2829 34.0211 63.3235 34.1272C63.3645 34.2333 63.424 34.3237 63.5022 34.3987C63.5804 34.4737 63.681 34.5329 63.7968 34.5794C63.9126 34.6263 64.0474 34.6481 64.2008 34.6481C64.342 34.6481 64.4675 34.6263 64.5803 34.5794C64.6931 34.5359 64.787 34.4737 64.8685 34.3987C64.9467 34.3237 65.0096 34.2333 65.0532 34.1272C65.0972 34.0211 65.1191 33.9086 65.1191 33.7841H64.6555C64.6335 34.1084 64.4797 34.2708 64.2042 34.2708ZM62.8658 35.2034V37.9807H63.3611L64.9717 35.9118V37.9807H65.4669V35.2034H64.9717L63.3611 37.2723V35.2034H62.8658Z" fill="white"/>
</g>
<defs>
<clipPath id="clip0_0_672">
<rect width="89" height="45" fill="white" transform="translate(0 0.582031)"/>
</clipPath>
</defs>
</svg>
