<svg width="157" height="40" viewBox="0 0 157 40" fill="none" xmlns="http://www.w3.org/2000/svg">
<rect width="157" height="40" rx="12" fill="#F7FF88"/>
<path d="M55.8294 15.719V14.2H62.0034V15.719H55.8294ZM55.5494 24V14.2H57.1664V18.19H59.7214C60.3327 18.19 60.8484 18.2763 61.2684 18.449C61.6884 18.617 62.0267 18.8433 62.2834 19.128C62.54 19.4127 62.7267 19.7277 62.8434 20.073C62.96 20.4137 63.0184 20.7543 63.0184 21.095C63.0184 21.431 62.96 21.7717 62.8434 22.117C62.7267 22.4577 62.54 22.7703 62.2834 23.055C62.0267 23.3397 61.6884 23.5683 61.2684 23.741C60.8484 23.9137 60.3327 24 59.7214 24H55.5494ZM57.1664 22.495H59.8334C60.2207 22.495 60.5287 22.4297 60.7574 22.299C60.986 22.1637 61.1494 21.991 61.2474 21.781C61.3454 21.5663 61.3944 21.3377 61.3944 21.095C61.3944 20.857 61.3454 20.633 61.2474 20.423C61.1494 20.2083 60.986 20.0357 60.7574 19.905C60.5287 19.7697 60.2207 19.702 59.8334 19.702H57.1664V22.495ZM64.8846 24V16.846H66.4526V21.298L69.5886 16.846H71.1566V24H69.5886V19.562L66.4526 24H64.8846ZM76.0626 24.168C75.3299 24.168 74.6789 24 74.1096 23.664C73.5449 23.328 73.1412 22.859 72.8986 22.257L74.2426 21.781C74.4152 22.117 74.6532 22.3737 74.9566 22.551C75.2646 22.7237 75.6239 22.81 76.0346 22.81C76.4172 22.81 76.7206 22.733 76.9446 22.579C77.1686 22.4203 77.2806 22.2033 77.2806 21.928C77.2806 21.6573 77.1686 21.445 76.9446 21.291C76.7252 21.137 76.4079 21.06 75.9926 21.06H74.7326V19.716H75.9506C76.2819 19.716 76.5386 19.6367 76.7206 19.478C76.9072 19.3193 77.0006 19.1117 77.0006 18.855C77.0006 18.5983 76.9026 18.3977 76.7066 18.253C76.5152 18.1083 76.2586 18.036 75.9366 18.036C75.5866 18.036 75.2786 18.1177 75.0126 18.281C74.7466 18.4397 74.5412 18.6753 74.3966 18.988L73.1506 18.456C73.3746 17.8913 73.7409 17.455 74.2496 17.147C74.7629 16.8343 75.3532 16.678 76.0206 16.678C76.7999 16.678 77.4206 16.8623 77.8826 17.231C78.3446 17.5997 78.5756 18.078 78.5756 18.666C78.5756 19.0393 78.4706 19.3707 78.2606 19.66C78.0552 19.9447 77.7519 20.157 77.3506 20.297C77.8359 20.4043 78.2069 20.6167 78.4636 20.934C78.7249 21.2513 78.8556 21.62 78.8556 22.04C78.8556 22.6653 78.6036 23.1763 78.0996 23.573C77.5956 23.9697 76.9166 24.168 76.0626 24.168ZM80.8124 24V16.846H82.3804V19.632H85.7334V16.846H87.3014V24H85.7334V21.004H82.3804V24H80.8124ZM92.4257 24.168C91.749 24.168 91.1657 24.0117 90.6757 23.699C90.1857 23.3863 89.81 22.95 89.5487 22.39C89.2874 21.8253 89.1567 21.1673 89.1567 20.416C89.1567 19.6367 89.292 18.9693 89.5627 18.414C89.8334 17.854 90.2137 17.4247 90.7037 17.126C91.1937 16.8273 91.7677 16.678 92.4257 16.678C92.9904 16.678 93.5037 16.7993 93.9657 17.042C94.4324 17.2847 94.8034 17.658 95.0787 18.162C95.354 18.6613 95.4917 19.2983 95.4917 20.073C95.4917 20.1943 95.4894 20.339 95.4847 20.507C95.48 20.6703 95.466 20.836 95.4427 21.004H90.7177C90.7457 21.368 90.832 21.6853 90.9767 21.956C91.126 22.2267 91.3244 22.439 91.5717 22.593C91.819 22.7423 92.1107 22.817 92.4467 22.817C92.7734 22.817 93.0627 22.7633 93.3147 22.656C93.5667 22.544 93.807 22.3667 94.0357 22.124L94.9457 23.083C94.6517 23.405 94.2924 23.6663 93.8677 23.867C93.4477 24.0677 92.967 24.168 92.4257 24.168ZM90.7247 19.737H93.9517C93.9377 19.3963 93.8677 19.0977 93.7417 18.841C93.6204 18.5843 93.4477 18.386 93.2237 18.246C92.9997 18.1013 92.7267 18.029 92.4047 18.029C91.9567 18.029 91.574 18.169 91.2567 18.449C90.944 18.729 90.7667 19.1583 90.7247 19.737ZM100.079 24.168C99.43 24.168 98.8723 24.0187 98.4057 23.72C97.939 23.4167 97.5797 22.985 97.3277 22.425C97.0757 21.865 96.9497 21.2 96.9497 20.43C96.9497 19.66 97.078 18.995 97.3347 18.435C97.5913 17.8703 97.9553 17.4363 98.4267 17.133C98.898 16.8297 99.4603 16.678 100.114 16.678C100.809 16.678 101.392 16.8413 101.864 17.168C102.335 17.49 102.678 17.9637 102.893 18.589L101.402 19.107C101.285 18.8037 101.117 18.5703 100.898 18.407C100.683 18.2437 100.426 18.162 100.128 18.162C99.633 18.162 99.2457 18.3627 98.9657 18.764C98.6857 19.1653 98.5457 19.7207 98.5457 20.43C98.5457 21.13 98.6833 21.6783 98.9587 22.075C99.234 22.4717 99.612 22.67 100.093 22.67C100.419 22.67 100.699 22.5813 100.933 22.404C101.166 22.222 101.336 21.963 101.444 21.627L102.928 22.082C102.727 22.7633 102.382 23.2813 101.892 23.636C101.406 23.9907 100.802 24.168 100.079 24.168ZM108.093 24.168L107.33 22.957C107.783 22.8917 108.112 22.7587 108.317 22.558C108.527 22.3573 108.653 22.047 108.695 21.627L109.234 16.846H114.757V24H113.182V18.225H110.662L110.214 22.012C110.144 22.6233 109.929 23.1087 109.57 23.468C109.215 23.8273 108.723 24.0607 108.093 24.168ZM119.102 24.168C118.318 24.168 117.702 23.9557 117.254 23.531C116.806 23.1063 116.582 22.53 116.582 21.802C116.582 21.326 116.696 20.913 116.925 20.563C117.154 20.2083 117.476 19.9353 117.891 19.744C118.306 19.548 118.792 19.45 119.347 19.45C119.674 19.45 119.984 19.4827 120.278 19.548C120.577 19.6087 120.843 19.702 121.076 19.828V19.366C121.076 18.9087 120.959 18.5703 120.726 18.351C120.493 18.127 120.14 18.015 119.669 18.015C119.324 18.015 118.967 18.078 118.598 18.204C118.229 18.33 117.868 18.512 117.513 18.75L117.044 17.497C117.436 17.2357 117.877 17.035 118.367 16.895C118.857 16.7503 119.349 16.678 119.844 16.678C120.763 16.678 121.452 16.902 121.909 17.35C122.371 17.7933 122.602 18.4607 122.602 19.352V24H121.076V23.398C120.824 23.6453 120.528 23.8367 120.187 23.972C119.846 24.1027 119.485 24.168 119.102 24.168ZM119.424 22.831C119.727 22.831 120.021 22.7657 120.306 22.635C120.595 22.5043 120.852 22.3177 121.076 22.075V21.102C120.866 20.9853 120.628 20.8967 120.362 20.836C120.101 20.7707 119.844 20.738 119.592 20.738C119.125 20.738 118.759 20.8337 118.493 21.025C118.227 21.2117 118.094 21.4707 118.094 21.802C118.094 22.1193 118.211 22.3713 118.444 22.558C118.677 22.74 119.004 22.831 119.424 22.831ZM124.713 24V16.846H126.281V19.632H129.634V16.846H131.202V24H129.634V21.004H126.281V24H124.713ZM137.994 24V20.927C137.775 21.2163 137.502 21.4333 137.175 21.578C136.849 21.7227 136.445 21.795 135.964 21.795C135.544 21.795 135.169 21.7343 134.837 21.613C134.511 21.4917 134.233 21.3097 134.004 21.067C133.776 20.8197 133.601 20.5093 133.479 20.136C133.358 19.7627 133.297 19.324 133.297 18.82V16.846H134.872V18.582C134.872 19.1187 134.984 19.541 135.208 19.849C135.437 20.157 135.827 20.311 136.377 20.311C136.713 20.311 137.003 20.2573 137.245 20.15C137.488 20.038 137.672 19.8583 137.798 19.611C137.929 19.359 137.994 19.0253 137.994 18.61V16.846H139.569V24H137.994Z" fill="black"/>
<g filter="url(#filter0_b_0_1082)">
<path d="M27.8762 11.7647C23.57 11.7647 20.0792 15.2556 20.0792 19.5617C20.0792 23.8679 23.57 27.3587 27.8762 27.3587C32.1824 27.3587 35.6732 23.8679 35.6732 19.5617C35.6732 15.2556 32.1824 11.7647 27.8762 11.7647ZM27.8762 25.4779C24.614 25.4779 21.96 22.8239 21.96 19.5618C21.96 16.2996 24.614 13.6456 27.8762 13.6456C31.1383 13.6456 33.7923 16.2996 33.7923 19.5618C33.7923 22.8239 31.1383 25.4779 27.8762 25.4779Z" fill="black"/>
<path d="M27.8761 15.2314C25.4884 15.2314 23.5458 17.174 23.5458 19.5617C23.5458 21.9494 25.4884 23.892 27.8761 23.892C30.2639 23.892 32.2064 21.9494 32.2064 19.5617C32.2064 17.174 30.2639 15.2314 27.8761 15.2314ZM38.7804 20.2154V10.7407C38.7804 10.6961 38.7664 10.6527 38.7403 10.6165C38.7143 10.5803 38.6776 10.5532 38.6353 10.5389C38.593 10.5247 38.5474 10.5241 38.5048 10.5372C38.4622 10.5504 38.4247 10.5765 38.3978 10.612C37.2156 12.171 36.5758 14.0738 36.5758 16.0302V19.4964C36.5758 19.8939 36.8981 20.2162 37.2956 20.2162H37.5957C37.2999 23.2715 37.1044 27.5445 37.1044 28.0449C37.1044 28.8331 37.5896 29.4721 38.1881 29.4721C38.7866 29.4721 39.2717 28.8331 39.2717 28.0449C39.2717 27.5445 39.0762 23.2707 38.7804 20.2154ZM18.8743 18.3373C19.474 17.974 19.8749 17.3154 19.8749 16.563L19.5778 11.7062C19.5719 11.6138 19.5297 11.5276 19.4605 11.4662C19.3912 11.4048 19.3006 11.3732 19.2082 11.3783C19.1158 11.3834 19.0291 11.4248 18.9671 11.4935C18.9051 11.5622 18.8727 11.6526 18.877 11.745L19.0702 15.6402C19.0702 15.7454 19.0284 15.8462 18.9541 15.9206C18.8797 15.9949 18.7789 16.0367 18.6738 16.0367C18.5686 16.0367 18.4678 15.9949 18.3935 15.9206C18.3191 15.8462 18.2774 15.7454 18.2774 15.6402L18.1808 11.7467C18.1782 11.6479 18.137 11.554 18.0662 11.485C17.9954 11.4161 17.9005 11.3775 17.8016 11.3775C17.7028 11.3775 17.6078 11.4161 17.537 11.485C17.4662 11.554 17.4251 11.6479 17.4224 11.7467L17.3259 15.6402C17.3259 15.7454 17.2841 15.8462 17.2098 15.9206C17.1354 15.9949 17.0346 16.0367 16.9294 16.0367C16.8243 16.0367 16.7235 15.9949 16.6491 15.9206C16.5748 15.8462 16.533 15.7454 16.533 15.6402L16.7262 11.745C16.7361 11.5447 16.5762 11.3767 16.3757 11.3767C16.2864 11.3767 16.2004 11.4108 16.1353 11.472C16.0702 11.5332 16.0309 11.617 16.0255 11.7062L15.7283 16.563C15.7283 17.3154 16.1291 17.974 16.7288 18.3374C16.92 18.4532 17.0741 18.6214 17.1729 18.8219C17.2717 19.0225 17.3111 19.2471 17.2864 19.4693C16.9478 22.5207 16.7179 27.5023 16.7179 28.0449C16.7179 28.8332 17.2031 29.4722 17.8016 29.4722C18.4 29.4722 18.8852 28.8331 18.8852 28.0449C18.8852 27.5023 18.6552 22.5207 18.3167 19.4693C18.2921 19.2471 18.3315 19.0225 18.4303 18.8219C18.5291 18.6214 18.6832 18.4532 18.8743 18.3373Z" fill="black"/>
</g>
<defs>
<filter id="filter0_b_0_1082" x="-42" y="-42" width="139" height="124" filterUnits="userSpaceOnUse" color-interpolation-filters="sRGB">
<feFlood flood-opacity="0" result="BackgroundImageFix"/>
<feGaussianBlur in="BackgroundImageFix" stdDeviation="21"/>
<feComposite in2="SourceAlpha" operator="in" result="effect1_backgroundBlur_0_1082"/>
<feBlend mode="normal" in="SourceGraphic" in2="effect1_backgroundBlur_0_1082" result="shape"/>
</filter>
</defs>
</svg>
