<svg width="157" height="40" viewBox="0 0 157 40" fill="none" xmlns="http://www.w3.org/2000/svg">
<rect width="157" height="40" rx="12" fill="#F7FF88"/>
<path d="M55.93 15.719V14.2H62.104V15.719H55.93ZM55.65 24V14.2H57.267V18.19H59.822C60.4333 18.19 60.949 18.2763 61.369 18.449C61.789 18.617 62.1273 18.8433 62.384 19.128C62.6406 19.4127 62.8273 19.7277 62.944 20.073C63.0606 20.4137 63.119 20.7543 63.119 21.095C63.119 21.431 63.0606 21.7717 62.944 22.117C62.8273 22.4577 62.6406 22.7703 62.384 23.055C62.1273 23.3397 61.789 23.5683 61.369 23.741C60.949 23.9137 60.4333 24 59.822 24H55.65ZM57.267 22.495H59.934C60.3213 22.495 60.6293 22.4297 60.858 22.299C61.0866 22.1637 61.25 21.991 61.348 21.781C61.446 21.5663 61.495 21.3377 61.495 21.095C61.495 20.857 61.446 20.633 61.348 20.423C61.25 20.2083 61.0866 20.0357 60.858 19.905C60.6293 19.7697 60.3213 19.702 59.934 19.702H57.267V22.495ZM67.1946 24.168C66.4106 24.168 65.7946 23.9557 65.3466 23.531C64.8986 23.1063 64.6746 22.53 64.6746 21.802C64.6746 21.326 64.7889 20.913 65.0176 20.563C65.2463 20.2083 65.5683 19.9353 65.9836 19.744C66.3989 19.548 66.8843 19.45 67.4396 19.45C67.7663 19.45 68.0766 19.4827 68.3706 19.548C68.6693 19.6087 68.9353 19.702 69.1686 19.828V19.366C69.1686 18.9087 69.0519 18.5703 68.8186 18.351C68.5853 18.127 68.2329 18.015 67.7616 18.015C67.4163 18.015 67.0593 18.078 66.6906 18.204C66.3219 18.33 65.9603 18.512 65.6056 18.75L65.1366 17.497C65.5286 17.2357 65.9696 17.035 66.4596 16.895C66.9496 16.7503 67.4419 16.678 67.9366 16.678C68.8559 16.678 69.5443 16.902 70.0016 17.35C70.4636 17.7933 70.6946 18.4607 70.6946 19.352V24H69.1686V23.398C68.9166 23.6453 68.6203 23.8367 68.2796 23.972C67.9389 24.1027 67.5773 24.168 67.1946 24.168ZM67.5166 22.831C67.8199 22.831 68.1139 22.7657 68.3986 22.635C68.6879 22.5043 68.9446 22.3177 69.1686 22.075V21.102C68.9586 20.9853 68.7206 20.8967 68.4546 20.836C68.1933 20.7707 67.9366 20.738 67.6846 20.738C67.2179 20.738 66.8516 20.8337 66.5856 21.025C66.3196 21.2117 66.1866 21.4707 66.1866 21.802C66.1866 22.1193 66.3033 22.3713 66.5366 22.558C66.7699 22.74 67.0966 22.831 67.5166 22.831ZM72.8055 26.842V16.846H74.3735V17.399C74.8075 16.9183 75.3605 16.678 76.0325 16.678C76.6439 16.678 77.1689 16.8297 77.6075 17.133C78.0509 17.4363 78.3915 17.868 78.6295 18.428C78.8722 18.988 78.9935 19.653 78.9935 20.423C78.9935 21.179 78.8699 21.837 78.6225 22.397C78.3752 22.957 78.0299 23.3933 77.5865 23.706C77.1432 24.014 76.6229 24.168 76.0255 24.168C75.6755 24.168 75.3629 24.1073 75.0875 23.986C74.8169 23.86 74.5789 23.671 74.3735 23.419V26.121L72.8055 26.842ZM75.7945 22.677C76.3125 22.677 76.7092 22.481 76.9845 22.089C77.2645 21.697 77.4045 21.1417 77.4045 20.423C77.4045 19.7137 77.2622 19.1607 76.9775 18.764C76.6929 18.3627 76.2985 18.162 75.7945 18.162C75.4865 18.162 75.2135 18.225 74.9755 18.351C74.7375 18.477 74.5369 18.659 74.3735 18.897V21.928C74.5369 22.166 74.7422 22.3503 74.9895 22.481C75.2369 22.6117 75.5052 22.677 75.7945 22.677ZM80.872 24V16.846H82.44V19.632H85.793V16.846H87.361V24H85.793V21.004H82.44V24H80.872ZM92.4773 24.168C91.4786 24.168 90.6923 23.8343 90.1183 23.167C89.5443 22.4997 89.2573 21.5873 89.2573 20.43C89.2573 19.66 89.388 18.995 89.6493 18.435C89.9106 17.875 90.2816 17.4433 90.7623 17.14C91.2476 16.832 91.8193 16.678 92.4773 16.678C93.14 16.678 93.7116 16.8297 94.1923 17.133C94.673 17.4363 95.044 17.868 95.3053 18.428C95.5666 18.988 95.6973 19.653 95.6973 20.423C95.6973 21.193 95.5666 21.858 95.3053 22.418C95.044 22.978 94.673 23.4097 94.1923 23.713C93.7116 24.0163 93.14 24.168 92.4773 24.168ZM92.4773 22.677C92.9953 22.677 93.399 22.4787 93.6883 22.082C93.9776 21.6853 94.1223 21.1323 94.1223 20.423C94.1223 19.709 93.9753 19.1537 93.6813 18.757C93.392 18.3603 92.9906 18.162 92.4773 18.162C91.964 18.162 91.5603 18.3627 91.2663 18.764C90.977 19.1607 90.8323 19.716 90.8323 20.43C90.8323 21.1347 90.977 21.6853 91.2663 22.082C91.5603 22.4787 91.964 22.677 92.4773 22.677ZM100.483 24.168C99.8067 24.168 99.2233 24.0117 98.7333 23.699C98.2433 23.3863 97.8677 22.95 97.6063 22.39C97.345 21.8253 97.2143 21.1673 97.2143 20.416C97.2143 19.6367 97.3497 18.9693 97.6203 18.414C97.891 17.854 98.2713 17.4247 98.7613 17.126C99.2513 16.8273 99.8253 16.678 100.483 16.678C101.048 16.678 101.561 16.7993 102.023 17.042C102.49 17.2847 102.861 17.658 103.136 18.162C103.412 18.6613 103.549 19.2983 103.549 20.073C103.549 20.1943 103.547 20.339 103.542 20.507C103.538 20.6703 103.524 20.836 103.5 21.004H98.7753C98.8033 21.368 98.8897 21.6853 99.0343 21.956C99.1837 22.2267 99.382 22.439 99.6293 22.593C99.8767 22.7423 100.168 22.817 100.504 22.817C100.831 22.817 101.12 22.7633 101.372 22.656C101.624 22.544 101.865 22.3667 102.093 22.124L103.003 23.083C102.709 23.405 102.35 23.6663 101.925 23.867C101.505 24.0677 101.025 24.168 100.483 24.168ZM98.7823 19.737H102.009C101.995 19.3963 101.925 19.0977 101.799 18.841C101.678 18.5843 101.505 18.386 101.281 18.246C101.057 18.1013 100.784 18.029 100.462 18.029C100.014 18.029 99.6317 18.169 99.3143 18.449C99.0017 18.729 98.8243 19.1583 98.7823 19.737ZM112.445 24.126L110.611 20.535C110.55 20.409 110.49 20.2807 110.429 20.15C110.368 20.0193 110.308 19.884 110.247 19.744C110.261 19.8513 110.27 19.9727 110.275 20.108C110.284 20.2433 110.289 20.374 110.289 20.5V24H108.749V16.846H110.184L112.165 20.738C112.226 20.864 112.279 20.976 112.326 21.074C112.373 21.1673 112.412 21.2513 112.445 21.326C112.478 21.2513 112.515 21.1673 112.557 21.074C112.604 20.976 112.66 20.864 112.725 20.738L114.699 16.846H116.141V24H114.594V20.626C114.594 20.4953 114.599 20.353 114.608 20.199C114.617 20.045 114.627 19.9143 114.636 19.807C114.575 19.9423 114.512 20.0777 114.447 20.213C114.386 20.3437 114.323 20.4743 114.258 20.605L112.445 24.126ZM121.265 24.168C120.588 24.168 120.005 24.0117 119.515 23.699C119.025 23.3863 118.649 22.95 118.388 22.39C118.126 21.8253 117.996 21.1673 117.996 20.416C117.996 19.6367 118.131 18.9693 118.402 18.414C118.672 17.854 119.053 17.4247 119.543 17.126C120.033 16.8273 120.607 16.678 121.265 16.678C121.829 16.678 122.343 16.7993 122.805 17.042C123.271 17.2847 123.642 17.658 123.918 18.162C124.193 18.6613 124.331 19.2983 124.331 20.073C124.331 20.1943 124.328 20.339 124.324 20.507C124.319 20.6703 124.305 20.836 124.282 21.004H119.557C119.585 21.368 119.671 21.6853 119.816 21.956C119.965 22.2267 120.163 22.439 120.411 22.593C120.658 22.7423 120.95 22.817 121.286 22.817C121.612 22.817 121.902 22.7633 122.154 22.656C122.406 22.544 122.646 22.3667 122.875 22.124L123.785 23.083C123.491 23.405 123.131 23.6663 122.707 23.867C122.287 24.0677 121.806 24.168 121.265 24.168ZM119.564 19.737H122.791C122.777 19.3963 122.707 19.0977 122.581 18.841C122.459 18.5843 122.287 18.386 122.063 18.246C121.839 18.1013 121.566 18.029 121.244 18.029C120.796 18.029 120.413 18.169 120.096 18.449C119.783 18.729 119.606 19.1583 119.564 19.737ZM126.14 24V16.846H127.708V19.632H131.061V16.846H132.629V24H131.061V21.004H127.708V24H126.14ZM141.638 24.168C140.765 24.168 140.047 23.9067 139.482 23.384C138.922 22.8567 138.584 22.11 138.467 21.144H136.444V24H134.876V16.846H136.444V19.674H138.474C138.595 18.7267 138.936 17.9917 139.496 17.469C140.061 16.9417 140.775 16.678 141.638 16.678C142.291 16.678 142.858 16.8273 143.339 17.126C143.82 17.4247 144.193 17.854 144.459 18.414C144.725 18.9693 144.858 19.639 144.858 20.423C144.858 21.599 144.566 22.5183 143.983 23.181C143.4 23.839 142.618 24.168 141.638 24.168ZM141.638 22.677C142.156 22.677 142.56 22.4787 142.849 22.082C143.138 21.6807 143.283 21.1277 143.283 20.423C143.283 19.7183 143.138 19.1653 142.849 18.764C142.564 18.3627 142.161 18.162 141.638 18.162C141.129 18.162 140.728 18.3603 140.434 18.757C140.14 19.1537 139.993 19.7113 139.993 20.43C139.993 21.13 140.14 21.6807 140.434 22.082C140.728 22.4787 141.129 22.677 141.638 22.677Z" fill="black"/>
<g filter="url(#filter0_b_0_1572)">
<path d="M38.6997 12.6873C38.6498 12.5668 38.5653 12.4639 38.4569 12.3914C38.3485 12.319 38.2211 12.2803 38.0907 12.2803H34.0338L36.4386 9.87555C36.696 9.61817 36.696 9.20074 36.4386 8.94336C36.1812 8.68593 35.7638 8.68598 35.5064 8.94336L32.1695 12.2803H16.9095C16.7791 12.2803 16.6516 12.319 16.5432 12.3914C16.4348 12.4638 16.3503 12.5668 16.3004 12.6872C16.2505 12.8077 16.2375 12.9402 16.2629 13.0681C16.2884 13.196 16.3512 13.3134 16.4434 13.4056L26.8409 23.8032V29.9314H22.5578C22.1937 29.9314 21.8986 30.2265 21.8986 30.5905C21.8986 30.9546 22.1937 31.2497 22.5578 31.2497H32.4424C32.8064 31.2497 33.1015 30.9546 33.1015 30.5905C33.1015 30.2265 32.8064 29.9314 32.4424 29.9314H28.1592V23.8032L34.3197 17.6426C34.3203 17.6421 34.3208 17.6416 34.3214 17.641L38.5568 13.4056C38.649 13.3134 38.7118 13.196 38.7372 13.0681C38.7626 12.9402 38.7496 12.8077 38.6997 12.6873ZM27.9331 16.5166H21.4188L18.5009 13.5987H30.8511L27.9331 16.5166ZM33.5814 16.5166H29.7975L32.7154 13.5987H36.4993L33.5814 16.5166Z" fill="black"/>
</g>
<defs>
<filter id="filter0_b_0_1572" x="-42" y="-42" width="139" height="124" filterUnits="userSpaceOnUse" color-interpolation-filters="sRGB">
<feFlood flood-opacity="0" result="BackgroundImageFix"/>
<feGaussianBlur in="BackgroundImageFix" stdDeviation="21"/>
<feComposite in2="SourceAlpha" operator="in" result="effect1_backgroundBlur_0_1572"/>
<feBlend mode="normal" in="SourceGraphic" in2="effect1_backgroundBlur_0_1572" result="shape"/>
</filter>
</defs>
</svg>
