<svg width="172" height="40" viewBox="0 0 172 40" fill="none" xmlns="http://www.w3.org/2000/svg">
<path d="M0 0H160C166.627 0 172 5.37258 172 12V28C172 34.6274 166.627 40 160 40H0V0Z" fill="#083740" fill-opacity="0.5"/>
<path d="M55.2838 24V14.2H59.2948C60.1068 14.2 60.7508 14.3493 61.2268 14.648C61.7074 14.942 62.0504 15.3223 62.2558 15.789C62.4611 16.251 62.5638 16.7317 62.5638 17.231C62.5638 17.581 62.5031 17.9333 62.3818 18.288C62.2651 18.638 62.0761 18.9623 61.8148 19.261C61.5534 19.5597 61.2151 19.8 60.7998 19.982C60.3844 20.1593 59.8828 20.248 59.2948 20.248H56.9008V24H55.2838ZM56.9008 18.736H59.3788C59.7568 18.736 60.0578 18.6613 60.2818 18.512C60.5058 18.358 60.6668 18.1667 60.7648 17.938C60.8628 17.7047 60.9118 17.469 60.9118 17.231C60.9118 17.0163 60.8674 16.7923 60.7788 16.559C60.6948 16.321 60.5408 16.1203 60.3168 15.957C60.0928 15.7937 59.7801 15.712 59.3788 15.712H56.9008V18.736ZM66.8534 24.168C66.1768 24.168 65.5934 24.0117 65.1034 23.699C64.6134 23.3863 64.2378 22.95 63.9764 22.39C63.7151 21.8253 63.5844 21.1673 63.5844 20.416C63.5844 19.6367 63.7198 18.9693 63.9904 18.414C64.2611 17.854 64.6414 17.4247 65.1314 17.126C65.6214 16.8273 66.1954 16.678 66.8534 16.678C67.4181 16.678 67.9314 16.7993 68.3934 17.042C68.8601 17.2847 69.2311 17.658 69.5064 18.162C69.7818 18.6613 69.9194 19.2983 69.9194 20.073C69.9194 20.1943 69.9171 20.339 69.9124 20.507C69.9078 20.6703 69.8938 20.836 69.8704 21.004H65.1454C65.1734 21.368 65.2598 21.6853 65.4044 21.956C65.5538 22.2267 65.7521 22.439 65.9994 22.593C66.2468 22.7423 66.5384 22.817 66.8744 22.817C67.2011 22.817 67.4904 22.7633 67.7424 22.656C67.9944 22.544 68.2348 22.3667 68.4634 22.124L69.3734 23.083C69.0794 23.405 68.7201 23.6663 68.2954 23.867C67.8754 24.0677 67.3948 24.168 66.8534 24.168ZM65.1524 19.737H68.3794C68.3654 19.3963 68.2954 19.0977 68.1694 18.841C68.0481 18.5843 67.8754 18.386 67.6514 18.246C67.4274 18.1013 67.1544 18.029 66.8324 18.029C66.3844 18.029 66.0018 18.169 65.6844 18.449C65.3718 18.729 65.1944 19.1583 65.1524 19.737ZM72.7714 23.076V21.032L76.1034 16.846H77.8184L72.7714 23.076ZM71.7284 24V16.846H73.2964V24H71.7284ZM76.5654 24L74.4234 20.052L75.4524 18.778L78.3084 24H76.5654ZM82.5681 24.168C81.5695 24.168 80.7831 23.8343 80.2091 23.167C79.6351 22.4997 79.3481 21.5873 79.3481 20.43C79.3481 19.66 79.4788 18.995 79.7401 18.435C80.0015 17.875 80.3725 17.4433 80.8531 17.14C81.3385 16.832 81.9101 16.678 82.5681 16.678C83.2308 16.678 83.8025 16.8297 84.2831 17.133C84.7638 17.4363 85.1348 17.868 85.3961 18.428C85.6575 18.988 85.7881 19.653 85.7881 20.423C85.7881 21.193 85.6575 21.858 85.3961 22.418C85.1348 22.978 84.7638 23.4097 84.2831 23.713C83.8025 24.0163 83.2308 24.168 82.5681 24.168ZM82.5681 22.677C83.0861 22.677 83.4898 22.4787 83.7791 22.082C84.0685 21.6853 84.2131 21.1323 84.2131 20.423C84.2131 19.709 84.0661 19.1537 83.7721 18.757C83.4828 18.3603 83.0815 18.162 82.5681 18.162C82.0548 18.162 81.6511 18.3627 81.3571 18.764C81.0678 19.1607 80.9231 19.716 80.9231 20.43C80.9231 21.1347 81.0678 21.6853 81.3571 22.082C81.6511 22.4787 82.0548 22.677 82.5681 22.677ZM91.3658 24.126L89.5318 20.535C89.4711 20.409 89.4105 20.2807 89.3498 20.15C89.2891 20.0193 89.2285 19.884 89.1678 19.744C89.1818 19.8513 89.1911 19.9727 89.1958 20.108C89.2051 20.2433 89.2098 20.374 89.2098 20.5V24H87.6698V16.846H89.1048L91.0858 20.738C91.1465 20.864 91.2001 20.976 91.2468 21.074C91.2935 21.1673 91.3331 21.2513 91.3658 21.326C91.3985 21.2513 91.4358 21.1673 91.4778 21.074C91.5245 20.976 91.5805 20.864 91.6458 20.738L93.6198 16.846H95.0618V24H93.5148V20.626C93.5148 20.4953 93.5195 20.353 93.5288 20.199C93.5381 20.045 93.5475 19.9143 93.5568 19.807C93.4961 19.9423 93.4331 20.0777 93.3678 20.213C93.3071 20.3437 93.2441 20.4743 93.1788 20.605L91.3658 24.126ZM100.185 24.168C99.5088 24.168 98.9255 24.0117 98.4355 23.699C97.9455 23.3863 97.5698 22.95 97.3085 22.39C97.0471 21.8253 96.9165 21.1673 96.9165 20.416C96.9165 19.6367 97.0518 18.9693 97.3225 18.414C97.5931 17.854 97.9735 17.4247 98.4635 17.126C98.9535 16.8273 99.5275 16.678 100.185 16.678C100.75 16.678 101.263 16.7993 101.725 17.042C102.192 17.2847 102.563 17.658 102.838 18.162C103.114 18.6613 103.251 19.2983 103.251 20.073C103.251 20.1943 103.249 20.339 103.244 20.507C103.24 20.6703 103.226 20.836 103.202 21.004H98.4775C98.5055 21.368 98.5918 21.6853 98.7365 21.956C98.8858 22.2267 99.0841 22.439 99.3315 22.593C99.5788 22.7423 99.8705 22.817 100.206 22.817C100.533 22.817 100.822 22.7633 101.074 22.656C101.326 22.544 101.567 22.3667 101.795 22.124L102.705 23.083C102.411 23.405 102.052 23.6663 101.627 23.867C101.207 24.0677 100.727 24.168 100.185 24.168ZM98.4845 19.737H101.711C101.697 19.3963 101.627 19.0977 101.501 18.841C101.38 18.5843 101.207 18.386 100.983 18.246C100.759 18.1013 100.486 18.029 100.164 18.029C99.7165 18.029 99.3338 18.169 99.0165 18.449C98.7038 18.729 98.5265 19.1583 98.4845 19.737ZM105.06 24V16.846H106.628V19.632H109.981V16.846H111.549V24H109.981V21.004H106.628V24H105.06ZM113.082 26.338V22.621H113.831C114.013 22.5277 114.155 22.383 114.258 22.187C114.365 21.9863 114.435 21.732 114.468 21.424L114.972 16.846H120.46V22.621H121.517V25.673L119.949 26.338V24H114.65V25.673L113.082 26.338ZM115.665 22.621H118.892V18.225H116.358L115.98 21.606C115.952 21.8113 115.91 22.0003 115.854 22.173C115.798 22.341 115.735 22.4903 115.665 22.621ZM125.33 24.168C124.546 24.168 123.93 23.9557 123.482 23.531C123.034 23.1063 122.81 22.53 122.81 21.802C122.81 21.326 122.925 20.913 123.153 20.563C123.382 20.2083 123.704 19.9353 124.119 19.744C124.535 19.548 125.02 19.45 125.575 19.45C125.902 19.45 126.212 19.4827 126.506 19.548C126.805 19.6087 127.071 19.702 127.304 19.828V19.366C127.304 18.9087 127.188 18.5703 126.954 18.351C126.721 18.127 126.369 18.015 125.897 18.015C125.552 18.015 125.195 18.078 124.826 18.204C124.458 18.33 124.096 18.512 123.741 18.75L123.272 17.497C123.664 17.2357 124.105 17.035 124.595 16.895C125.085 16.7503 125.578 16.678 126.072 16.678C126.992 16.678 127.68 16.902 128.137 17.35C128.599 17.7933 128.83 18.4607 128.83 19.352V24H127.304V23.398C127.052 23.6453 126.756 23.8367 126.415 23.972C126.075 24.1027 125.713 24.168 125.33 24.168ZM125.652 22.831C125.956 22.831 126.25 22.7657 126.534 22.635C126.824 22.5043 127.08 22.3177 127.304 22.075V21.102C127.094 20.9853 126.856 20.8967 126.59 20.836C126.329 20.7707 126.072 20.738 125.82 20.738C125.354 20.738 124.987 20.8337 124.721 21.025C124.455 21.2117 124.322 21.4707 124.322 21.802C124.322 22.1193 124.439 22.3713 124.672 22.558C124.906 22.74 125.232 22.831 125.652 22.831ZM130.941 24V16.846H132.509V22.621H135.617V16.846H137.185V24H130.941ZM136.786 26.338V24H136.107V22.621H138.361V25.624L136.786 26.338ZM140.019 24V16.846H141.587V21.298L144.723 16.846H146.291V24H144.723V19.562L141.587 24H140.019ZM148.551 24V16.846H150.119V21.298L153.255 16.846H154.823V24H153.255V19.562L150.119 24H148.551Z" fill="white" fill-opacity="0.5"/>
<g filter="url(#filter0_b_0_1075)">
<path d="M32.5743 16.4031C32.508 16.3392 32.4275 16.2917 32.3393 16.2642C32.251 16.2367 32.1576 16.2301 32.0663 16.2449C31.975 16.2597 31.8885 16.2954 31.8137 16.3492C31.7389 16.4031 31.6779 16.4735 31.6355 16.5549C31.3408 17.1214 30.9666 17.6436 30.524 18.1062C30.5681 17.773 30.5901 17.4374 30.5902 17.1014C30.5902 16.4564 30.5029 15.7926 30.3306 15.1283C29.7641 12.9462 28.2788 11.1008 26.2555 10.0654C26.1688 10.021 26.0724 9.99859 25.9748 10.0001C25.8772 10.0016 25.7815 10.0269 25.6962 10.0739C25.6109 10.1209 25.5386 10.188 25.4859 10.2693C25.4331 10.3506 25.4015 10.4436 25.3938 10.5399C25.2361 12.5229 24.2045 14.327 22.562 15.4907C22.5403 15.5062 22.5187 15.5219 22.4971 15.5376C22.4524 15.5699 22.4103 15.6006 22.3709 15.6263C22.3648 15.6303 22.3587 15.6345 22.3527 15.6387C21.3197 16.371 20.4673 17.3472 19.8877 18.462C19.2986 19.596 19 20.8128 19 22.0786C19 22.7235 19.0873 23.3873 19.2595 24.0517C20.1683 27.554 23.3514 30 27.0002 30C31.4113 30 35 26.4465 35 22.0786C35 19.9247 34.1385 17.9091 32.5743 16.4031Z" fill="white" fill-opacity="0.5"/>
</g>
<defs>
<filter id="filter0_b_0_1075" x="-42" y="-42" width="138" height="124" filterUnits="userSpaceOnUse" color-interpolation-filters="sRGB">
<feFlood flood-opacity="0" result="BackgroundImageFix"/>
<feGaussianBlur in="BackgroundImageFix" stdDeviation="21"/>
<feComposite in2="SourceAlpha" operator="in" result="effect1_backgroundBlur_0_1075"/>
<feBlend mode="normal" in="SourceGraphic" in2="effect1_backgroundBlur_0_1075" result="shape"/>
</filter>
</defs>
</svg>
