<svg width="164" height="40" viewBox="0 0 164 40" fill="none" xmlns="http://www.w3.org/2000/svg">
<rect width="164" height="40" rx="12" fill="#083740" fill-opacity="0.5"/>
<path d="M55.4322 24V14.2H59.4082C60.1969 14.2 60.8175 14.3283 61.2702 14.585C61.7275 14.837 62.0519 15.1637 62.2432 15.565C62.4392 15.9617 62.5372 16.3793 62.5372 16.818C62.5372 17.2613 62.4299 17.665 62.2152 18.029C62.0052 18.3883 61.6809 18.6637 61.2422 18.855C61.6062 18.9763 61.9095 19.1537 62.1522 19.387C62.3949 19.6203 62.5769 19.8887 62.6982 20.192C62.8195 20.4953 62.8802 20.8103 62.8802 21.137C62.8802 21.4777 62.8219 21.8183 62.7052 22.159C62.5932 22.495 62.4112 22.803 62.1592 23.083C61.9072 23.3583 61.5712 23.58 61.1512 23.748C60.7359 23.916 60.2249 24 59.6182 24H55.4322ZM57.0492 22.495H59.7372C60.1339 22.495 60.4419 22.4273 60.6612 22.292C60.8852 22.1567 61.0392 21.9887 61.1232 21.788C61.2119 21.5827 61.2562 21.375 61.2562 21.165C61.2562 20.913 61.2049 20.6727 61.1022 20.444C60.9995 20.2153 60.8082 20.031 60.5282 19.891C60.2482 19.7463 59.8445 19.674 59.3172 19.674H57.0492V22.495ZM57.0492 18.211H59.1842C59.7675 18.211 60.2015 18.0943 60.4862 17.861C60.7709 17.6277 60.9132 17.3173 60.9132 16.93C60.9132 16.734 60.8759 16.5403 60.8012 16.349C60.7312 16.1577 60.5912 16.0013 60.3812 15.88C60.1712 15.754 59.8632 15.691 59.4572 15.691H57.0492V18.211ZM64.8221 24V16.846H66.3901V21.298L69.5261 16.846H71.0941V24H69.5261V19.562L66.3901 24H64.8221ZM73.3534 24V16.846H74.9214V19.632H78.2744V16.846H79.8424V24H78.2744V21.004H74.9214V24H73.3534ZM82.0897 24V16.846H83.6577V19.632H87.0107V16.846H88.5787V24H87.0107V21.004H83.6577V24H82.0897ZM93.6951 24.168C92.6964 24.168 91.9101 23.8343 91.3361 23.167C90.7621 22.4997 90.4751 21.5873 90.4751 20.43C90.4751 19.66 90.6057 18.995 90.8671 18.435C91.1284 17.875 91.4994 17.4433 91.9801 17.14C92.4654 16.832 93.0371 16.678 93.6951 16.678C94.3577 16.678 94.9294 16.8297 95.4101 17.133C95.8907 17.4363 96.2617 17.868 96.5231 18.428C96.7844 18.988 96.9151 19.653 96.9151 20.423C96.9151 21.193 96.7844 21.858 96.5231 22.418C96.2617 22.978 95.8907 23.4097 95.4101 23.713C94.9294 24.0163 94.3577 24.168 93.6951 24.168ZM93.6951 22.677C94.2131 22.677 94.6167 22.4787 94.9061 22.082C95.1954 21.6853 95.3401 21.1323 95.3401 20.423C95.3401 19.709 95.1931 19.1537 94.8991 18.757C94.6097 18.3603 94.2084 18.162 93.6951 18.162C93.1817 18.162 92.7781 18.3627 92.4841 18.764C92.1947 19.1607 92.0501 19.716 92.0501 20.43C92.0501 21.1347 92.1947 21.6853 92.4841 22.082C92.7781 22.4787 93.1817 22.677 93.6951 22.677ZM101.701 24.168C101.024 24.168 100.441 24.0117 99.9511 23.699C99.4611 23.3863 99.0854 22.95 98.8241 22.39C98.5628 21.8253 98.4321 21.1673 98.4321 20.416C98.4321 19.6367 98.5674 18.9693 98.8381 18.414C99.1088 17.854 99.4891 17.4247 99.9791 17.126C100.469 16.8273 101.043 16.678 101.701 16.678C102.266 16.678 102.779 16.7993 103.241 17.042C103.708 17.2847 104.079 17.658 104.354 18.162C104.629 18.6613 104.767 19.2983 104.767 20.073C104.767 20.1943 104.765 20.339 104.76 20.507C104.755 20.6703 104.741 20.836 104.718 21.004H99.9931C100.021 21.368 100.107 21.6853 100.252 21.956C100.401 22.2267 100.6 22.439 100.847 22.593C101.094 22.7423 101.386 22.817 101.722 22.817C102.049 22.817 102.338 22.7633 102.59 22.656C102.842 22.544 103.082 22.3667 103.311 22.124L104.221 23.083C103.927 23.405 103.568 23.6663 103.143 23.867C102.723 24.0677 102.242 24.168 101.701 24.168ZM100 19.737H103.227C103.213 19.3963 103.143 19.0977 103.017 18.841C102.896 18.5843 102.723 18.386 102.499 18.246C102.275 18.1013 102.002 18.029 101.68 18.029C101.232 18.029 100.849 18.169 100.532 18.449C100.219 18.729 100.042 19.1583 100 19.737ZM113.663 24.126L111.829 20.535C111.768 20.409 111.707 20.2807 111.647 20.15C111.586 20.0193 111.525 19.884 111.465 19.744C111.479 19.8513 111.488 19.9727 111.493 20.108C111.502 20.2433 111.507 20.374 111.507 20.5V24H109.967V16.846H111.402L113.383 20.738C113.443 20.864 113.497 20.976 113.544 21.074C113.59 21.1673 113.63 21.2513 113.663 21.326C113.695 21.2513 113.733 21.1673 113.775 21.074C113.821 20.976 113.877 20.864 113.943 20.738L115.917 16.846H117.359V24H115.812V20.626C115.812 20.4953 115.816 20.353 115.826 20.199C115.835 20.045 115.844 19.9143 115.854 19.807C115.793 19.9423 115.73 20.0777 115.665 20.213C115.604 20.3437 115.541 20.4743 115.476 20.605L113.663 24.126ZM122.482 24.168C121.806 24.168 121.222 24.0117 120.732 23.699C120.242 23.3863 119.867 22.95 119.605 22.39C119.344 21.8253 119.213 21.1673 119.213 20.416C119.213 19.6367 119.349 18.9693 119.619 18.414C119.89 17.854 120.27 17.4247 120.76 17.126C121.25 16.8273 121.824 16.678 122.482 16.678C123.047 16.678 123.56 16.7993 124.022 17.042C124.489 17.2847 124.86 17.658 125.135 18.162C125.411 18.6613 125.548 19.2983 125.548 20.073C125.548 20.1943 125.546 20.339 125.541 20.507C125.537 20.6703 125.523 20.836 125.499 21.004H120.774C120.802 21.368 120.889 21.6853 121.033 21.956C121.183 22.2267 121.381 22.439 121.628 22.593C121.876 22.7423 122.167 22.817 122.503 22.817C122.83 22.817 123.119 22.7633 123.371 22.656C123.623 22.544 123.864 22.3667 124.092 22.124L125.002 23.083C124.708 23.405 124.349 23.6663 123.924 23.867C123.504 24.0677 123.024 24.168 122.482 24.168ZM120.781 19.737H124.008C123.994 19.3963 123.924 19.0977 123.798 18.841C123.677 18.5843 123.504 18.386 123.28 18.246C123.056 18.1013 122.783 18.029 122.461 18.029C122.013 18.029 121.631 18.169 121.313 18.449C121.001 18.729 120.823 19.1583 120.781 19.737ZM127.357 24V16.846H128.925V19.632H132.278V16.846H133.846V24H132.278V21.004H128.925V24H127.357ZM142.856 24.168C141.983 24.168 141.264 23.9067 140.7 23.384C140.14 22.8567 139.801 22.11 139.685 21.144H137.662V24H136.094V16.846H137.662V19.674H139.692C139.813 18.7267 140.154 17.9917 140.714 17.469C141.278 16.9417 141.992 16.678 142.856 16.678C143.509 16.678 144.076 16.8273 144.557 17.126C145.037 17.4247 145.411 17.854 145.677 18.414C145.943 18.9693 146.076 19.639 146.076 20.423C146.076 21.599 145.784 22.5183 145.201 23.181C144.617 23.839 143.836 24.168 142.856 24.168ZM142.856 22.677C143.374 22.677 143.777 22.4787 144.067 22.082C144.356 21.6807 144.501 21.1277 144.501 20.423C144.501 19.7183 144.356 19.1653 144.067 18.764C143.782 18.3627 143.378 18.162 142.856 18.162C142.347 18.162 141.946 18.3603 141.652 18.757C141.358 19.1537 141.211 19.7113 141.211 20.43C141.211 21.13 141.358 21.6807 141.652 22.082C141.946 22.4787 142.347 22.677 142.856 22.677Z" fill="white" fill-opacity="0.5"/>
<g filter="url(#filter0_b_0_295)">
<path d="M21.877 13.04L22.8057 8H34.6464L35.5751 13.04C35.9234 15.08 35.6912 17.24 34.6464 18.92C33.6017 20.72 31.8604 21.92 29.8869 22.28V28.4C29.8869 29.12 30.3513 29.6 31.0478 29.6C32.3247 29.6 33.3695 30.68 33.3695 32H24.0827C24.0827 30.68 25.1274 29.6 26.4044 29.6C27.1009 29.6 27.5652 29.12 27.5652 28.4V22.28C25.5918 21.92 23.9666 20.72 22.8057 18.92C21.7609 17.24 21.5288 15.08 21.877 13.04Z" fill="white" fill-opacity="0.5"/>
</g>
<defs>
<filter id="filter0_b_0_295" x="-42" y="-42" width="141.452" height="124" filterUnits="userSpaceOnUse" color-interpolation-filters="sRGB">
<feFlood flood-opacity="0" result="BackgroundImageFix"/>
<feGaussianBlur in="BackgroundImageFix" stdDeviation="21"/>
<feComposite in2="SourceAlpha" operator="in" result="effect1_backgroundBlur_0_295"/>
<feBlend mode="normal" in="SourceGraphic" in2="effect1_backgroundBlur_0_295" result="shape"/>
</filter>
</defs>
</svg>
